<svg id="Layer_1" data-name="Layer 1" xmlns="http://www.w3.org/2000/svg" viewBox="0 0 5952.76 1508"><defs><style>.cls-1{fill:#00aeef;}.cls-1,.cls-11,.cls-12,.cls-4,.cls-5,.cls-6,.cls-8{stroke:#231f20;}.cls-1,.cls-10,.cls-11,.cls-12,.cls-14,.cls-15,.cls-4,.cls-5,.cls-6,.cls-8,.cls-9{stroke-miterlimit:10;}.cls-2{fill:#231f20;}.cls-3{fill:#754c29;}.cls-4{fill:#ffde17;}.cls-11,.cls-12,.cls-15,.cls-5,.cls-9{fill:none;}.cls-5,.cls-6{stroke-width:9px;}.cls-6{fill:#fff;}.cls-7,.cls-8{fill:#00a651;}.cls-10,.cls-15,.cls-9{stroke:#ed1c24;}.cls-10{fill:#ed1c24;}.cls-11{stroke-width:6px;}.cls-12{stroke-width:3px;}.cls-13,.cls-14{fill:#39b54a;}.cls-14{stroke:#39b54a;}.cls-15{stroke-width:10px;}</style></defs><circle class="cls-1" cx="181.08" cy="415.04" r="54.29"/><circle class="cls-1" cx="1983.05" cy="896.17" r="54.29"/><circle class="cls-1" cx="523.58" cy="414.92" r="54.29"/><path class="cls-2" d="M121.21,69.41a14.82,14.82,0,0,0,7.49,2.11c4.27,0,6.77-2.25,6.77-5.52,0-3-1.73-4.75-6.1-6.43-5.28-1.87-8.54-4.61-8.54-9.17,0-5,4.17-8.78,10.46-8.78a14.66,14.66,0,0,1,7.15,1.58l-1.15,3.41a12.78,12.78,0,0,0-6.14-1.54c-4.42,0-6.1,2.64-6.1,4.85,0,3,2,4.51,6.43,6.24,5.48,2.11,8.26,4.75,8.26,9.51,0,5-3.7,9.31-11.33,9.31a16.76,16.76,0,0,1-8.26-2.06Z"/><path class="cls-2" d="M150.25,44.59v6.68h6.05v3.21h-6.05V67c0,2.88.82,4.51,3.17,4.51a9.18,9.18,0,0,0,2.45-.29l.19,3.17a10.26,10.26,0,0,1-3.75.58,5.88,5.88,0,0,1-4.56-1.78c-1.2-1.25-1.63-3.31-1.63-6V54.48h-3.6V51.27h3.6V45.7Z"/><path class="cls-2" d="M180.49,68.16c0,2.4,0,4.51.19,6.34h-3.74l-.24-3.79h-.1A8.74,8.74,0,0,1,168.92,75c-3.65,0-8-2-8-10.18V51.27h4.22V64.13c0,4.42,1.34,7.39,5.18,7.39a6,6,0,0,0,6-6V51.27h4.22Z"/><path class="cls-2" d="M207.56,40.42V68.5c0,2.06.05,4.42.2,6H204l-.19-4h-.09A8.61,8.61,0,0,1,195.75,75c-5.61,0-9.93-4.76-9.93-11.81,0-7.73,4.75-12.48,10.41-12.48,3.56,0,6,1.68,7,3.55h.1V40.42Zm-4.22,20.3a7.56,7.56,0,0,0-.19-1.77,6.22,6.22,0,0,0-6.1-4.9c-4.37,0-7,3.84-7,9,0,4.7,2.3,8.59,6.86,8.59a6.35,6.35,0,0,0,6.2-5,7.56,7.56,0,0,0,.19-1.83Z"/><path class="cls-2" d="M216.92,63.65c.1,5.71,3.75,8.06,8,8.06a15.14,15.14,0,0,0,6.43-1.2l.72,3A18.85,18.85,0,0,1,224.31,75c-7.15,0-11.42-4.71-11.42-11.71s4.13-12.53,10.9-12.53c7.58,0,9.6,6.67,9.6,10.94a15.22,15.22,0,0,1-.15,2Zm12.39-3c0-2.69-1.11-6.87-5.86-6.87-4.27,0-6.14,3.94-6.48,6.87Z"/><path class="cls-2" d="M238.62,57.55c0-2.4-.05-4.36-.19-6.28h3.74l.24,3.84h.1a8.54,8.54,0,0,1,7.68-4.37c3.21,0,8.21,1.92,8.21,9.89V74.5h-4.23V61.11c0-3.75-1.39-6.87-5.38-6.87a6,6,0,0,0-5.66,4.32,6.15,6.15,0,0,0-.29,2v14h-4.22Z"/><path class="cls-2" d="M270.15,44.59v6.68h6.05v3.21h-6.05V67c0,2.88.82,4.51,3.17,4.51a9.12,9.12,0,0,0,2.45-.29L276,74.4a10.2,10.2,0,0,1-3.74.58,5.86,5.86,0,0,1-4.56-1.78c-1.2-1.25-1.64-3.31-1.64-6V54.48h-3.6V51.27H266V45.7Z"/><path class="cls-2" d="M123.28,297.29h4.17v28.85h13.83v3.51h-18Z"/><path class="cls-2" d="M147.47,318.8c.09,5.71,3.74,8.06,8,8.06a15.3,15.3,0,0,0,6.43-1.2l.72,3a18.85,18.85,0,0,1-7.73,1.44c-7.15,0-11.42-4.71-11.42-11.72s4.12-12.53,10.89-12.53c7.59,0,9.6,6.68,9.6,10.95a15.77,15.77,0,0,1-.14,2Zm12.38-3c.05-2.69-1.1-6.86-5.85-6.86-4.28,0-6.15,3.93-6.48,6.86Z"/><path class="cls-2" d="M185.73,328.78a15.54,15.54,0,0,1-6.68,1.35c-7,0-11.57-4.76-11.57-11.86s4.9-12.34,12.48-12.34a14.22,14.22,0,0,1,5.86,1.2l-1,3.27a9.75,9.75,0,0,0-4.9-1.11c-5.32,0-8.2,3.94-8.2,8.79,0,5.37,3.45,8.69,8.06,8.69a11.94,11.94,0,0,0,5.18-1.16Z"/><path class="cls-2" d="M196.38,299.74v6.67h6.05v3.22h-6.05v12.53c0,2.88.82,4.51,3.17,4.51a9.18,9.18,0,0,0,2.45-.29l.19,3.17a10.26,10.26,0,0,1-3.75.58,5.88,5.88,0,0,1-4.56-1.78c-1.2-1.25-1.63-3.31-1.63-6.05V309.63h-3.6v-3.22h3.6v-5.57Z"/><path class="cls-2" d="M227.92,317.84c0,8.59-6,12.33-11.57,12.33-6.29,0-11.14-4.6-11.14-11.95,0-7.78,5.09-12.34,11.52-12.34C223.4,305.88,227.92,310.73,227.92,317.84Zm-18.44.24c0,5.09,2.93,8.93,7.06,8.93s7.06-3.8,7.06-9c0-3.94-2-8.93-7-8.93S209.48,313.66,209.48,318.08Z"/><path class="cls-2" d="M233.24,313.66c0-2.74-.05-5.09-.19-7.25h3.7l.14,4.56h.19a7,7,0,0,1,6.44-5.09,4.43,4.43,0,0,1,1.2.15v4a6.85,6.85,0,0,0-1.45-.14c-3,0-5.08,2.25-5.66,5.42a11.55,11.55,0,0,0-.19,2v12.39h-4.18Z"/><path class="cls-2" d="M415.35,319.61,412,329.79h-4.32l11-32.36h5l11,32.36h-4.47l-3.45-10.18ZM426,316.35,422.79,307c-.71-2.11-1.2-4-1.68-5.9H421c-.48,1.92-1,3.89-1.63,5.85l-3.17,9.37Z"/><path class="cls-2" d="M452.41,329.79l-.34-2.93h-.14a8.66,8.66,0,0,1-7.1,3.45c-4.71,0-7.11-3.31-7.11-6.67,0-5.61,5-8.69,14-8.64v-.48c0-1.92-.53-5.37-5.28-5.37a11.63,11.63,0,0,0-6.05,1.72l-1-2.78A14.42,14.42,0,0,1,447,306c7.11,0,8.84,4.85,8.84,9.51v8.69a32.65,32.65,0,0,0,.38,5.57Zm-.62-11.86c-4.61-.1-9.84.72-9.84,5.23a3.73,3.73,0,0,0,4,4,5.79,5.79,0,0,0,5.62-3.88,4.63,4.63,0,0,0,.24-1.35Z"/><path class="cls-2" d="M462.68,312.84c0-2.4-.05-4.37-.19-6.29h3.74l.24,3.84h.1a8.54,8.54,0,0,1,7.68-4.37c3.22,0,8.21,1.92,8.21,9.89v13.88h-4.23v-13.4c0-3.74-1.39-6.86-5.37-6.86a6,6,0,0,0-5.67,4.32,6.16,6.16,0,0,0-.28,2v14h-4.23Z"/><path class="cls-2" d="M489.32,295.7h4.23v14.5h.09a7.82,7.82,0,0,1,3-3A8.65,8.65,0,0,1,501,306c3.12,0,8.11,1.92,8.11,9.94v13.83h-4.23V316.44c0-3.74-1.39-6.91-5.37-6.91a6.08,6.08,0,0,0-5.67,4.22,5.14,5.14,0,0,0-.28,2v14h-4.23Z"/><path class="cls-2" d="M537,318c0,8.59-6,12.33-11.57,12.33-6.29,0-11.14-4.6-11.14-11.95,0-7.78,5.09-12.34,11.52-12.34C532.47,306,537,310.87,537,318Zm-18.44.24c0,5.09,2.93,8.93,7.06,8.93s7.06-3.8,7.06-9c0-3.93-2-8.93-7-8.93S518.55,313.8,518.55,318.22Z"/><path class="cls-2" d="M561.75,323.45c0,2.4,0,4.51.2,6.34H558.2L558,326h-.09a8.74,8.74,0,0,1-7.68,4.32c-3.65,0-8-2-8-10.17V306.55h4.22v12.87c0,4.41,1.35,7.39,5.19,7.39a5.93,5.93,0,0,0,5.95-6V306.55h4.22Z"/><path class="cls-2" d="M588.83,295.7v28.09c0,2.06,0,4.41.19,6h-3.79l-.2-4h-.09a8.59,8.59,0,0,1-7.92,4.56c-5.62,0-9.94-4.75-9.94-11.8C567,310.78,571.83,306,577.5,306c3.55,0,6,1.68,7,3.56h.09V295.7ZM584.6,316a7.7,7.7,0,0,0-.19-1.78,6.2,6.2,0,0,0-6.1-4.89c-4.36,0-7,3.84-7,9,0,4.71,2.31,8.6,6.87,8.6a6.36,6.36,0,0,0,6.19-5,7.62,7.62,0,0,0,.19-1.83Z"/><path class="cls-2" d="M600.54,300a2.62,2.62,0,0,1-5.24,0,2.58,2.58,0,0,1,2.64-2.64A2.51,2.51,0,0,1,600.54,300Zm-4.71,29.77V306.55h4.23v23.24Z"/><path class="cls-2" d="M607.06,312.84c0-2.4,0-4.37-.19-6.29h3.75l.24,3.84H611a8.54,8.54,0,0,1,7.68-4.37c3.22,0,8.21,1.92,8.21,9.89v13.88h-4.22v-13.4c0-3.74-1.39-6.86-5.38-6.86a6,6,0,0,0-5.66,4.32,5.88,5.88,0,0,0-.29,2v14h-4.23Z"/><path class="cls-2" d="M653.72,306.55c-.09,1.68-.19,3.55-.19,6.39v13.49c0,5.32-1.06,8.59-3.31,10.61s-5.52,2.78-8.45,2.78A15,15,0,0,1,634,337.9l1.06-3.22a13.06,13.06,0,0,0,6.81,1.83c4.32,0,7.49-2.26,7.49-8.12V325.8h-.1a8.28,8.28,0,0,1-7.39,3.89c-5.76,0-9.89-4.9-9.89-11.33,0-7.87,5.14-12.34,10.47-12.34a7.74,7.74,0,0,1,7.25,4h.09l.19-3.51Zm-4.37,9.17a6.18,6.18,0,0,0-6.14-6.38c-4,0-6.91,3.41-6.91,8.78,0,4.56,2.3,8.35,6.86,8.35a6.19,6.19,0,0,0,5.86-4.32,7.3,7.3,0,0,0,.33-2.25Z"/><path class="cls-2" d="M96,668.28a30.23,30.23,0,0,1-9.94,1.77c-4.89,0-8.93-1.25-12.09-4.27-2.79-2.69-4.52-7-4.52-12C69.51,644.08,76.14,637,87,637a20.07,20.07,0,0,1,8.07,1.48l-1,3.41a16.75,16.75,0,0,0-7.15-1.39c-7.87,0-13,4.9-13,13s4.94,13.06,12.48,13.06a13.59,13.59,0,0,0,5.57-.87v-9.65H85.35v-3.36H96Z"/><path class="cls-2" d="M104.84,658.87c.1,5.71,3.74,8.06,8,8.06a15.3,15.3,0,0,0,6.43-1.2l.72,3a18.85,18.85,0,0,1-7.73,1.44c-7.15,0-11.42-4.71-11.42-11.72S104.94,646,111.7,646c7.59,0,9.6,6.68,9.6,10.95a15.77,15.77,0,0,1-.14,2Zm12.38-3c0-2.69-1.1-6.86-5.85-6.86-4.27,0-6.15,3.94-6.48,6.86Z"/><path class="cls-2" d="M128.17,646.48l4.56,13.06a61.68,61.68,0,0,1,1.87,6h.14c.53-1.92,1.2-3.84,2-6l4.51-13.06h4.42l-9.12,23.24h-4l-8.84-23.24Z"/><path class="cls-2" d="M162.29,669.72l-.33-2.93h-.15a8.65,8.65,0,0,1-7.1,3.45c-4.7,0-7.1-3.31-7.1-6.67,0-5.61,5-8.69,14-8.64v-.48c0-1.92-.52-5.38-5.28-5.38a11.6,11.6,0,0,0-6,1.73l-1-2.78a14.39,14.39,0,0,1,7.63-2.07c7.1,0,8.83,4.85,8.83,9.51v8.69a32.58,32.58,0,0,0,.39,5.57Zm-.62-11.86c-4.61-.1-9.84.72-9.84,5.23a3.73,3.73,0,0,0,4,4,5.78,5.78,0,0,0,5.62-3.88,4.63,4.63,0,0,0,.24-1.35Z"/><path class="cls-2" d="M172.57,652.77c0-2.4,0-4.37-.2-6.29h3.75l.24,3.84h.09a8.55,8.55,0,0,1,7.68-4.37c3.22,0,8.21,1.92,8.21,9.89v13.88h-4.22v-13.4c0-3.74-1.39-6.86-5.38-6.86a6,6,0,0,0-5.66,4.32,6.15,6.15,0,0,0-.29,2v14h-4.22Z"/><path class="cls-2" d="M219.22,646.48c-.09,1.68-.19,3.55-.19,6.39v13.49c0,5.32-1.06,8.59-3.31,10.6s-5.52,2.79-8.45,2.79a15,15,0,0,1-7.73-1.92l1.06-3.22a13.06,13.06,0,0,0,6.81,1.83c4.32,0,7.49-2.26,7.49-8.12v-2.59h-.09a8.31,8.31,0,0,1-7.4,3.89c-5.76,0-9.89-4.9-9.89-11.33,0-7.87,5.14-12.34,10.47-12.34a7.74,7.74,0,0,1,7.25,4h.09l.2-3.51Zm-4.37,9.17a5.81,5.81,0,0,0-.24-1.92,6.07,6.07,0,0,0-5.9-4.46c-4,0-6.91,3.4-6.91,8.78,0,4.56,2.3,8.35,6.86,8.35a6.18,6.18,0,0,0,5.86-4.32,7.3,7.3,0,0,0,.33-2.25Z"/><path class="cls-2" d="M228.39,658.87c.09,5.71,3.74,8.06,8,8.06a15.3,15.3,0,0,0,6.43-1.2l.72,3a18.85,18.85,0,0,1-7.73,1.44c-7.15,0-11.42-4.71-11.42-11.72S228.48,646,235.25,646c7.59,0,9.6,6.68,9.6,10.95a15.77,15.77,0,0,1-.14,2Zm12.38-3c0-2.69-1.1-6.86-5.85-6.86-4.27,0-6.15,3.94-6.48,6.86Z"/><path class="cls-2" d="M250.08,652.77c0-2.4,0-4.37-.19-6.29h3.75l.24,3.84H254a8.55,8.55,0,0,1,7.68-4.37c3.22,0,8.21,1.92,8.21,9.89v13.88h-4.22v-13.4c0-3.74-1.39-6.86-5.38-6.86a6,6,0,0,0-5.66,4.32,5.88,5.88,0,0,0-.29,2v14h-4.23Z"/><path class="cls-2" d="M281.43,640a2.62,2.62,0,0,1-5.23,0,2.58,2.58,0,0,1,2.64-2.64A2.51,2.51,0,0,1,281.43,640Zm-4.71,29.77V646.48H281v23.24Z"/><path class="cls-2" d="M287.38,665.4a11.15,11.15,0,0,0,5.57,1.68c3.07,0,4.51-1.54,4.51-3.46s-1.2-3.12-4.32-4.27c-4.18-1.49-6.14-3.8-6.14-6.58,0-3.74,3-6.82,8-6.82a11.66,11.66,0,0,1,5.71,1.44l-1.05,3.08a9,9,0,0,0-4.75-1.35c-2.5,0-3.89,1.44-3.89,3.17,0,1.92,1.39,2.79,4.41,3.94,4,1.53,6.1,3.55,6.1,7,0,4.08-3.17,7-8.69,7a13.29,13.29,0,0,1-6.53-1.59Z"/><path class="cls-2" d="M412.42,627.41a14.82,14.82,0,0,0,7.49,2.11c4.27,0,6.77-2.26,6.77-5.52,0-3-1.73-4.75-6.1-6.44-5.28-1.87-8.54-4.6-8.54-9.16,0-5,4.17-8.79,10.46-8.79a14.64,14.64,0,0,1,7.15,1.59l-1.15,3.4a13,13,0,0,0-6.14-1.53c-4.42,0-6.1,2.64-6.1,4.85,0,3,2,4.51,6.43,6.24,5.48,2.11,8.26,4.75,8.26,9.5,0,5-3.7,9.31-11.33,9.31a16.76,16.76,0,0,1-8.26-2.06Z"/><path class="cls-2" d="M441.46,602.59v6.67h6.05v3.22h-6.05V625c0,2.89.82,4.52,3.17,4.52a9.61,9.61,0,0,0,2.45-.29l.19,3.17a10.52,10.52,0,0,1-3.75.57A5.87,5.87,0,0,1,439,631.2c-1.2-1.25-1.63-3.31-1.63-6.05V612.48h-3.6v-3.22h3.6v-5.57Z"/><path class="cls-2" d="M471.7,626.16c0,2.4.05,4.51.19,6.33h-3.74l-.24-3.79h-.1a8.74,8.74,0,0,1-7.68,4.32c-3.65,0-8-2-8-10.18V609.26h4.22v12.87c0,4.41,1.34,7.39,5.18,7.39a6.11,6.11,0,0,0,5.57-3.84,6.19,6.19,0,0,0,.39-2.16V609.26h4.22Z"/><path class="cls-2" d="M498.77,598.41v28.08c0,2.07.05,4.42.2,6h-3.8l-.19-4h-.1A8.58,8.58,0,0,1,487,633c-5.61,0-9.93-4.75-9.93-11.81,0-7.73,4.75-12.48,10.41-12.48,3.56,0,6,1.68,7,3.55h.1V598.41Zm-4.22,20.31a7.7,7.7,0,0,0-.19-1.78,6.22,6.22,0,0,0-6.1-4.9c-4.37,0-7,3.84-7,9,0,4.71,2.3,8.59,6.86,8.59a6.35,6.35,0,0,0,6.2-5,7.48,7.48,0,0,0,.19-1.82Z"/><path class="cls-2" d="M508.13,621.64c.1,5.72,3.75,8.07,8,8.07a15.3,15.3,0,0,0,6.43-1.2l.72,3a18.69,18.69,0,0,1-7.73,1.44c-7.15,0-11.42-4.7-11.42-11.71s4.13-12.53,10.9-12.53c7.58,0,9.6,6.67,9.6,10.95a15.19,15.19,0,0,1-.15,2Zm12.39-3c0-2.69-1.11-6.86-5.86-6.86-4.27,0-6.14,3.93-6.48,6.86Z"/><path class="cls-2" d="M529.83,615.55c0-2.4-.05-4.37-.2-6.29h3.75l.24,3.84h.09a8.57,8.57,0,0,1,7.69-4.37c3.21,0,8.2,1.92,8.2,9.89v13.87h-4.22V619.1c0-3.74-1.39-6.86-5.38-6.86a6.2,6.2,0,0,0-6,6.28v14h-4.22Z"/><path class="cls-2" d="M561.36,602.59v6.67h6v3.22h-6V625c0,2.89.82,4.52,3.17,4.52a9.55,9.55,0,0,0,2.45-.29l.19,3.17a10.49,10.49,0,0,1-3.74.57,5.84,5.84,0,0,1-4.56-1.77c-1.2-1.25-1.64-3.31-1.64-6.05V612.48h-3.6v-3.22h3.6v-5.57Z"/><path class="cls-2" d="M587,602.73a2.62,2.62,0,0,1-5.23,0,2.57,2.57,0,0,1,2.64-2.64A2.51,2.51,0,0,1,587,602.73Zm-4.7,29.76V609.26h4.22v23.23Z"/><path class="cls-2" d="M593.57,615.55c0-2.4-.05-4.37-.19-6.29h3.74l.24,3.84h.1a8.54,8.54,0,0,1,7.68-4.37c3.21,0,8.21,1.92,8.21,9.89v13.87h-4.23V619.1c0-3.74-1.39-6.86-5.37-6.86a6.2,6.2,0,0,0-6,6.28v14h-4.22Z"/><path class="cls-2" d="M650.45,598.41v28.08c0,2.07,0,4.42.19,6h-3.79l-.19-4h-.1a8.59,8.59,0,0,1-7.92,4.56c-5.62,0-9.94-4.75-9.94-11.81,0-7.73,4.76-12.48,10.42-12.48,3.55,0,6,1.68,7,3.55h.1V598.41Zm-4.22,20.31a7.2,7.2,0,0,0-.2-1.78,6.2,6.2,0,0,0-6.09-4.9c-4.37,0-7,3.84-7,9,0,4.71,2.3,8.59,6.86,8.59a6.34,6.34,0,0,0,6.19-5,7,7,0,0,0,.2-1.82Z"/><path class="cls-2" d="M659.81,621.64c.09,5.72,3.74,8.07,8,8.07a15.3,15.3,0,0,0,6.43-1.2l.72,3A18.69,18.69,0,0,1,667.2,633c-7.15,0-11.42-4.7-11.42-11.71s4.12-12.53,10.89-12.53c7.59,0,9.6,6.67,9.6,10.95a15.58,15.58,0,0,1-.14,2Zm12.38-3c0-2.69-1.1-6.86-5.85-6.86-4.28,0-6.15,3.93-6.48,6.86Z"/><path class="cls-2" d="M432.87,666.86c-.1,1.68-.19,3.55-.19,6.38v13.49c0,5.33-1.06,8.6-3.32,10.61s-5.52,2.79-8.44,2.79a15,15,0,0,1-7.73-1.92l1.05-3.22a13.13,13.13,0,0,0,6.82,1.82c4.32,0,7.49-2.25,7.49-8.11v-2.59h-.1a8.28,8.28,0,0,1-7.39,3.89c-5.76,0-9.89-4.9-9.89-11.33,0-7.87,5.14-12.34,10.47-12.34a7.71,7.71,0,0,1,7.24,4h.1l.19-3.5ZM428.5,676a6.19,6.19,0,0,0-6.14-6.39c-4,0-6.92,3.41-6.92,8.79,0,4.56,2.31,8.35,6.87,8.35a6.19,6.19,0,0,0,5.86-4.32,7.66,7.66,0,0,0,.33-2.25Z"/><path class="cls-2" d="M442,679.25c.09,5.71,3.74,8.06,8,8.06a15.35,15.35,0,0,0,6.44-1.2l.72,3a18.72,18.72,0,0,1-7.73,1.44c-7.15,0-11.43-4.7-11.43-11.71s4.13-12.53,10.9-12.53c7.58,0,9.6,6.67,9.6,10.95a18.21,18.21,0,0,1-.14,2Zm12.38-3c.05-2.69-1.1-6.86-5.86-6.86-4.27,0-6.14,3.93-6.48,6.86Z"/><path class="cls-2" d="M465.36,666.86l4.56,13.06a59.17,59.17,0,0,1,1.88,6h.14c.53-1.92,1.2-3.84,2-6l4.51-13.06h4.42l-9.12,23.23h-4l-8.83-23.23Z"/><path class="cls-2" d="M499.49,690.09l-.33-2.92H499a8.65,8.65,0,0,1-7.1,3.45c-4.71,0-7.11-3.31-7.11-6.67,0-5.62,5-8.69,14-8.64v-.48c0-1.92-.53-5.38-5.28-5.38a11.54,11.54,0,0,0-6.05,1.73l-1-2.78a14.43,14.43,0,0,1,7.64-2.07c7.1,0,8.83,4.85,8.83,9.51v8.69a32.45,32.45,0,0,0,.38,5.56Zm-.62-11.85c-4.61-.1-9.84.72-9.84,5.23a3.73,3.73,0,0,0,4,4,5.78,5.78,0,0,0,5.62-3.89,4.51,4.51,0,0,0,.24-1.34Z"/><path class="cls-2" d="M509.76,673.15c0-2.4-.05-4.37-.19-6.29h3.74l.24,3.84h.1a8.54,8.54,0,0,1,7.68-4.37c3.22,0,8.21,1.92,8.21,9.89v13.87h-4.22V676.7c0-3.74-1.4-6.86-5.38-6.86a6,6,0,0,0-5.67,4.32,6.08,6.08,0,0,0-.28,2v14h-4.23Z"/><path class="cls-2" d="M556.42,666.86c-.1,1.68-.19,3.55-.19,6.38v13.49c0,5.33-1.06,8.6-3.31,10.61s-5.53,2.79-8.45,2.79a15,15,0,0,1-7.73-1.92l1-3.22a13.13,13.13,0,0,0,6.82,1.82c4.32,0,7.49-2.25,7.49-8.11v-2.59H552a8.28,8.28,0,0,1-7.39,3.89c-5.76,0-9.89-4.9-9.89-11.33,0-7.87,5.14-12.34,10.47-12.34a7.73,7.73,0,0,1,7.25,4h.09l.19-3.5ZM552.05,676a6.19,6.19,0,0,0-6.14-6.39c-4,0-6.92,3.41-6.92,8.79,0,4.56,2.31,8.35,6.87,8.35a6.17,6.17,0,0,0,5.85-4.32,7.07,7.07,0,0,0,.34-2.25Z"/><path class="cls-2" d="M565.58,679.25c.1,5.71,3.75,8.06,8,8.06a15.35,15.35,0,0,0,6.44-1.2l.72,3a18.72,18.72,0,0,1-7.73,1.44c-7.15,0-11.43-4.7-11.43-11.71s4.13-12.53,10.9-12.53c7.58,0,9.6,6.67,9.6,10.95a18.21,18.21,0,0,1-.14,2Zm12.39-3c0-2.69-1.1-6.86-5.86-6.86-4.27,0-6.14,3.93-6.48,6.86Z"/><path class="cls-2" d="M587.28,673.15c0-2.4,0-4.37-.19-6.29h3.74l.24,3.84h.1a8.54,8.54,0,0,1,7.68-4.37c3.22,0,8.21,1.92,8.21,9.89v13.87h-4.23V676.7c0-3.74-1.39-6.86-5.37-6.86a6,6,0,0,0-5.67,4.32,6.06,6.06,0,0,0-.29,2v14h-4.22Z"/><path class="cls-2" d="M618.62,660.33a2.49,2.49,0,0,1-2.68,2.59,2.51,2.51,0,0,1-2.55-2.59,2.58,2.58,0,0,1,2.64-2.64A2.5,2.5,0,0,1,618.62,660.33Zm-4.7,29.76V666.86h4.22v23.23Z"/><path class="cls-2" d="M624.58,685.77a11,11,0,0,0,5.56,1.68c3.08,0,4.52-1.53,4.52-3.45s-1.2-3.12-4.32-4.28c-4.18-1.48-6.15-3.79-6.15-6.57,0-3.75,3-6.82,8-6.82a11.55,11.55,0,0,1,5.71,1.44l-1.06,3.07a9.09,9.09,0,0,0-4.75-1.34c-2.49,0-3.89,1.44-3.89,3.17,0,1.92,1.4,2.78,4.42,3.93,4,1.54,6.1,3.56,6.1,7,0,4.08-3.17,7-8.69,7a13.23,13.23,0,0,1-6.53-1.58Z"/><path class="cls-2" d="M140.59,979.59c-.24-4.51-.53-9.93-.48-14H140c-1.1,3.79-2.44,7.82-4.08,12.28l-5.71,15.7H127l-5.23-15.41c-1.54-4.56-2.83-8.74-3.74-12.57h-.1c-.1,4-.34,9.45-.62,14.3l-.87,13.87h-4l2.25-32.35H120l5.52,15.65c1.35,4,2.45,7.53,3.27,10.89H129c.82-3.26,2-6.81,3.41-10.89l5.76-15.65h5.33l2,32.35H141.4Z"/><path class="cls-2" d="M171.35,987.47c0,2.4.05,4.51.2,6.33H167.8l-.24-3.79h-.09a8.76,8.76,0,0,1-7.68,4.32c-3.65,0-8-2-8-10.18V970.57H156v12.86c0,4.42,1.35,7.4,5.19,7.4a6.12,6.12,0,0,0,5.57-3.84,6.24,6.24,0,0,0,.38-2.16V970.57h4.22Z"/><path class="cls-2" d="M197.8,987.47c0,2.4,0,4.51.19,6.33h-3.74L194,990h-.1a8.74,8.74,0,0,1-7.68,4.32c-3.65,0-8-2-8-10.18V970.57h4.22v12.86c0,4.42,1.34,7.4,5.19,7.4a6.09,6.09,0,0,0,5.56-3.84,6.24,6.24,0,0,0,.39-2.16V970.57h4.22Z"/><path class="cls-2" d="M204.81,977.82c0-2.74-.05-5.09-.19-7.25h3.69l.15,4.56h.19a7,7,0,0,1,6.43-5.09,4.82,4.82,0,0,1,1.2.14v4a6.11,6.11,0,0,0-1.44-.14c-3,0-5.09,2.25-5.66,5.42a11.5,11.5,0,0,0-.2,2V993.8h-4.17Z"/><rect class="cls-3" x="122.4" y="712.41" width="113.78" height="111.11"/><path class="cls-2" d="M394.26,949.79,383.7,917.44h4.52l5,15.93c1.39,4.37,2.59,8.31,3.45,12.1h.1c.91-3.74,2.25-7.82,3.69-12.05l5.48-16h4.46l-11.57,32.35Z"/><path class="cls-2" d="M414.57,938.94c.09,5.72,3.74,8.07,8,8.07a15.3,15.3,0,0,0,6.43-1.2l.72,3a18.85,18.85,0,0,1-7.73,1.44c-7.15,0-11.42-4.7-11.42-11.71S414.66,926,421.43,926C429,926,431,932.7,431,937a15.62,15.62,0,0,1-.14,2Zm12.38-3c.05-2.69-1.1-6.87-5.85-6.87-4.28,0-6.15,3.94-6.48,6.87Z"/><path class="cls-2" d="M436.26,933.81c0-2.74,0-5.09-.19-7.25h3.7l.14,4.56h.19a7,7,0,0,1,6.44-5.09,4.88,4.88,0,0,1,1.2.14v4a6.18,6.18,0,0,0-1.44-.15c-3,0-5.09,2.26-5.67,5.43a12.54,12.54,0,0,0-.19,2v12.38h-4.18Z"/><path class="cls-2" d="M451.38,945.47a11.05,11.05,0,0,0,5.57,1.68c3.07,0,4.51-1.53,4.51-3.46s-1.2-3.12-4.32-4.27c-4.17-1.49-6.14-3.79-6.14-6.57,0-3.75,3-6.82,8-6.82a11.58,11.58,0,0,1,5.71,1.44l-1.06,3.07a9.09,9.09,0,0,0-4.75-1.34c-2.5,0-3.89,1.44-3.89,3.17,0,1.92,1.39,2.78,4.42,3.93,4,1.54,6.09,3.55,6.09,7,0,4.08-3.16,7-8.68,7a13.23,13.23,0,0,1-6.53-1.58Z"/><path class="cls-2" d="M476.06,919.88v6.68h6v3.21h-6V942.3c0,2.88.81,4.52,3.16,4.52a9.55,9.55,0,0,0,2.45-.29l.19,3.17a10.45,10.45,0,0,1-3.74.57,5.86,5.86,0,0,1-4.56-1.77c-1.2-1.25-1.63-3.32-1.63-6V929.77h-3.6v-3.21h3.6V921Z"/><path class="cls-2" d="M507.59,938c0,8.6-5.95,12.34-11.57,12.34-6.29,0-11.13-4.61-11.13-12,0-7.78,5.09-12.34,11.52-12.34C503.08,926,507.59,930.88,507.59,938Zm-18.43.24c0,5.09,2.93,8.93,7.06,8.93s7-3.79,7-9c0-3.94-2-8.93-7-8.93S489.16,933.81,489.16,938.22Z"/><path class="cls-2" d="M512.92,934.14c0-3-.1-5.37-.19-7.58h3.79l.19,4h.1a9.13,9.13,0,0,1,8.25-4.51c5.62,0,9.84,4.75,9.84,11.81,0,8.35-5.08,12.48-10.56,12.48a8.13,8.13,0,0,1-7.15-3.65h-.09V959.3h-4.18Zm4.18,6.19a9.16,9.16,0,0,0,.19,1.73,6.52,6.52,0,0,0,6.33,5c4.47,0,7.06-3.65,7.06-9,0-4.66-2.45-8.64-6.91-8.64a6.75,6.75,0,0,0-6.39,5.23,7,7,0,0,0-.28,1.73Z"/><path class="cls-2" d="M545.32,919.88v6.68h6v3.21h-6V942.3c0,2.88.81,4.52,3.17,4.52a9.46,9.46,0,0,0,2.44-.29l.2,3.17a10.56,10.56,0,0,1-3.75.57,5.86,5.86,0,0,1-4.56-1.77c-1.2-1.25-1.63-3.32-1.63-6V929.77h-3.6v-3.21h3.6V921Z"/><path class="cls-2" d="M558.18,938.94c.1,5.72,3.75,8.07,8,8.07a15.26,15.26,0,0,0,6.43-1.2l.72,3a18.82,18.82,0,0,1-7.73,1.44c-7.15,0-11.42-4.7-11.42-11.71S558.28,926,565.05,926c7.58,0,9.6,6.67,9.6,10.94a15.22,15.22,0,0,1-.15,2Zm12.39-3c0-2.69-1.11-6.87-5.86-6.87-4.27,0-6.14,3.94-6.48,6.87Z"/><path class="cls-2" d="M589.48,945.47a11,11,0,0,0,5.57,1.68c3.07,0,4.51-1.53,4.51-3.46s-1.2-3.12-4.32-4.27c-4.18-1.49-6.15-3.79-6.15-6.57,0-3.75,3-6.82,8-6.82a11.55,11.55,0,0,1,5.71,1.44l-1.05,3.07A9.16,9.16,0,0,0,597,929.2c-2.49,0-3.88,1.44-3.88,3.17,0,1.92,1.39,2.78,4.41,3.93,4,1.54,6.1,3.55,6.1,7,0,4.08-3.17,7-8.69,7a13.26,13.26,0,0,1-6.53-1.58Z"/><path class="cls-2" d="M614.15,919.88v6.68h6.05v3.21h-6.05V942.3c0,2.88.82,4.52,3.17,4.52a9.61,9.61,0,0,0,2.45-.29l.19,3.17a10.52,10.52,0,0,1-3.75.57,5.87,5.87,0,0,1-4.56-1.77c-1.2-1.25-1.63-3.32-1.63-6V929.77h-3.6v-3.21H610V921Z"/><path class="cls-2" d="M644.39,943.46c0,2.39.05,4.51.19,6.33h-3.74L640.6,946h-.1a8.74,8.74,0,0,1-7.68,4.32c-3.65,0-8-2-8-10.18V926.56H629v12.86c0,4.42,1.34,7.4,5.18,7.4a6,6,0,0,0,6-6V926.56h4.22Z"/><path class="cls-2" d="M671.46,915.71v28.08c0,2.06,0,4.42.19,6h-3.79l-.19-4h-.1a8.58,8.58,0,0,1-7.92,4.56c-5.61,0-9.93-4.75-9.93-11.81-.05-7.73,4.75-12.48,10.41-12.48,3.56,0,6,1.68,7,3.55h.1V915.71ZM667.24,936a7.67,7.67,0,0,0-.19-1.77,6.22,6.22,0,0,0-6.1-4.9c-4.37,0-7,3.84-7,9,0,4.7,2.3,8.59,6.86,8.59a6.35,6.35,0,0,0,6.2-5,7.53,7.53,0,0,0,.19-1.82Z"/><path class="cls-2" d="M680.82,938.94c.1,5.72,3.74,8.07,8,8.07a15.3,15.3,0,0,0,6.43-1.2l.72,3a18.85,18.85,0,0,1-7.73,1.44c-7.15,0-11.42-4.7-11.42-11.71S680.92,926,687.69,926c7.58,0,9.6,6.67,9.6,10.94a15.22,15.22,0,0,1-.15,2Zm12.39-3c0-2.69-1.11-6.87-5.86-6.87-4.27,0-6.15,3.94-6.48,6.87Z"/><path class="cls-2" d="M702.52,932.85c0-2.4,0-4.37-.2-6.29h3.75l.24,3.84h.09a8.55,8.55,0,0,1,7.68-4.37c3.22,0,8.21,1.92,8.21,9.89v13.87h-4.22V936.4c0-3.75-1.39-6.87-5.38-6.87a6,6,0,0,0-5.66,4.32,6.15,6.15,0,0,0-.29,2v14h-4.22Z"/><path class="cls-2" d="M734.05,919.88v6.68h6.05v3.21h-6.05V942.3c0,2.88.82,4.52,3.17,4.52a9.61,9.61,0,0,0,2.45-.29l.19,3.17a10.49,10.49,0,0,1-3.74.57,5.84,5.84,0,0,1-4.56-1.77c-1.2-1.25-1.64-3.32-1.64-6V929.77h-3.6v-3.21h3.6V921Z"/><path class="cls-2" d="M399.88,1007.39l-.34-2.93h-.14a8.64,8.64,0,0,1-7.1,3.46c-4.71,0-7.11-3.31-7.11-6.67,0-5.62,5-8.69,14-8.64v-.48c0-1.92-.53-5.38-5.28-5.38a11.54,11.54,0,0,0-6.05,1.73l-1-2.79a14.5,14.5,0,0,1,7.63-2.06c7.11,0,8.84,4.85,8.84,9.5v8.69a32.5,32.5,0,0,0,.38,5.57Zm-.62-11.86c-4.61-.09-9.84.72-9.84,5.24a3.74,3.74,0,0,0,4,4,5.8,5.8,0,0,0,5.62-3.89,4.51,4.51,0,0,0,.24-1.34Z"/><path class="cls-2" d="M426.71,1006.53a15.64,15.64,0,0,1-6.67,1.34c-7,0-11.57-4.75-11.57-11.86s4.9-12.33,12.48-12.33a14.05,14.05,0,0,1,5.86,1.2l-1,3.26A9.87,9.87,0,0,0,421,987c-5.33,0-8.21,3.93-8.21,8.78,0,5.38,3.46,8.69,8.07,8.69a12,12,0,0,0,5.18-1.15Z"/><path class="cls-2" d="M431.66,973.31h4.22v14.5h.1a7.8,7.8,0,0,1,3-3,8.71,8.71,0,0,1,4.32-1.2c3.12,0,8.11,1.92,8.11,9.94v13.82h-4.22V994.05c0-3.75-1.39-6.92-5.38-6.92a6.07,6.07,0,0,0-5.66,4.23,5.08,5.08,0,0,0-.29,2v14h-4.22Z"/><path class="cls-2" d="M463.19,977.48v6.68h6.05v3.21h-6.05V999.9c0,2.88.82,4.52,3.17,4.52a9.61,9.61,0,0,0,2.45-.29l.19,3.16a10.24,10.24,0,0,1-3.74.58,5.84,5.84,0,0,1-4.56-1.77c-1.2-1.25-1.64-3.32-1.64-6.05V987.37h-3.6v-3.21h3.6v-5.57Z"/><path class="cls-2" d="M476.05,996.54c.1,5.71,3.75,8.07,8,8.07a15.35,15.35,0,0,0,6.44-1.2l.72,3a18.89,18.89,0,0,1-7.73,1.44c-7.16,0-11.43-4.7-11.43-11.71s4.13-12.53,10.9-12.53c7.58,0,9.6,6.67,9.6,10.94a17.8,17.8,0,0,1-.14,2Zm12.39-3c.05-2.69-1.1-6.87-5.86-6.87-4.27,0-6.14,3.94-6.48,6.87Z"/><path class="cls-2" d="M497.75,991.41c0-2.74-.05-5.09-.19-7.25h3.69l.15,4.56h.19a7,7,0,0,1,6.43-5.09,4.82,4.82,0,0,1,1.2.14v4a6.07,6.07,0,0,0-1.44-.15c-3,0-5.09,2.26-5.66,5.43a11.45,11.45,0,0,0-.19,2v12.38h-4.18Z"/><path class="cls-2" d="M543.69,973.31v28.08c0,2.07,0,4.42.19,6h-3.79l-.19-4h-.1a8.6,8.6,0,0,1-7.92,4.56c-5.62,0-9.94-4.75-9.94-11.81-.05-7.73,4.75-12.48,10.42-12.48,3.55,0,5.95,1.68,7,3.55h.09V973.31Zm-4.23,20.3a7.16,7.16,0,0,0-.19-1.77,6.21,6.21,0,0,0-6.1-4.9c-4.36,0-7,3.84-7,9,0,4.7,2.31,8.59,6.87,8.59a6.35,6.35,0,0,0,6.19-5,7.06,7.06,0,0,0,.19-1.82Z"/><path class="cls-2" d="M553.05,996.54c.09,5.71,3.74,8.07,8,8.07a15.35,15.35,0,0,0,6.44-1.2l.72,3a18.89,18.89,0,0,1-7.73,1.44c-7.15,0-11.43-4.7-11.43-11.71s4.13-12.53,10.9-12.53c7.59,0,9.6,6.67,9.6,10.94a15.62,15.62,0,0,1-.14,2Zm12.38-3c.05-2.69-1.1-6.87-5.86-6.87-4.27,0-6.14,3.94-6.48,6.87Z"/><path class="cls-2" d="M584.92,990.45c0-2.4,0-4.37-.2-6.29h3.7l.19,3.74h.15a8,8,0,0,1,7.29-4.27,6.87,6.87,0,0,1,6.58,4.66h.1a9.55,9.55,0,0,1,2.59-3,8,8,0,0,1,5.13-1.63c3.08,0,7.64,2,7.64,10.08v13.68H614V994.24c0-4.47-1.63-7.15-5-7.15a5.46,5.46,0,0,0-5,3.84,6.66,6.66,0,0,0-.34,2.11v14.35h-4.13V993.47c0-3.7-1.63-6.38-4.85-6.38a6.31,6.31,0,0,0-5.57,6.28v14h-4.12Z"/><path class="cls-2" d="M644.39,1001.05c0,2.41.05,4.52.19,6.34h-3.74l-.24-3.79h-.1a8.74,8.74,0,0,1-7.68,4.32c-3.65,0-8-2-8-10.18V984.16H629V997c0,4.42,1.34,7.4,5.18,7.4a6.11,6.11,0,0,0,5.57-3.84,6.24,6.24,0,0,0,.39-2.16V984.16h4.22Z"/><path class="cls-2" d="M670.84,1001.05c0,2.41,0,4.52.19,6.34h-3.74l-.24-3.79H667a8.74,8.74,0,0,1-7.68,4.32c-3.65,0-8-2-8-10.18V984.16h4.23V997c0,4.42,1.34,7.4,5.18,7.4a6.12,6.12,0,0,0,5.57-3.84,6.24,6.24,0,0,0,.38-2.16V984.16h4.23Z"/><path class="cls-2" d="M677.84,991.41c0-2.74,0-5.09-.19-7.25h3.7l.14,4.56h.19a7,7,0,0,1,6.44-5.09,4.88,4.88,0,0,1,1.2.14v4a6.12,6.12,0,0,0-1.44-.15c-3,0-5.09,2.26-5.67,5.43a12.54,12.54,0,0,0-.19,2v12.38h-4.18Z"/><polygon class="cls-4" points="231.66 212.34 193.51 192.67 155.68 212.94 162.61 170.59 131.64 140.87 174.06 134.37 192.75 95.73 212.05 134.07 254.57 139.9 224.07 170.1 231.66 212.34"/><polygon class="cls-4" points="544.7 446.71 523.8 435.93 503.07 447.04 506.87 423.83 489.9 407.55 513.14 403.98 523.38 382.81 533.96 403.82 557.25 407.02 540.54 423.56 544.7 446.71"/><polygon class="cls-4" points="494.26 1123.12 473.36 1112.34 452.63 1123.45 456.42 1100.24 439.45 1083.96 462.7 1080.39 472.94 1059.22 483.51 1080.23 506.81 1083.43 490.1 1099.98 494.26 1123.12"/><polygon class="cls-4" points="1459.68 421.33 1438.78 410.55 1418.06 421.66 1421.85 398.45 1404.88 382.17 1428.13 378.6 1438.37 357.43 1448.94 378.44 1472.24 381.64 1455.53 398.18 1459.68 421.33"/><rect class="cls-5" x="807.67" y="115.56" width="5415.76" height="885.33"/><rect class="cls-5" x="2081" y="115.56" width="1273.33" height="885.33"/><rect class="cls-5" x="3354.33" y="112.91" width="1273.33" height="885.33"/><rect class="cls-5" x="4625.67" y="114.9" width="1273.33" height="885.33"/><rect class="cls-6" x="806.67" y="10.9" width="107.67" height="81"/><rect class="cls-6" x="948.67" y="10.9" width="107.67" height="81"/><rect class="cls-6" x="1080.67" y="10.9" width="107.67" height="81"/><rect class="cls-6" x="1214.67" y="10.9" width="107.67" height="81"/><rect class="cls-6" x="1348.67" y="10.9" width="107.67" height="81"/><rect class="cls-6" x="1480.67" y="10.9" width="107.67" height="81"/><rect class="cls-6" x="1610.67" y="10.9" width="107.67" height="81"/><rect class="cls-6" x="1740.67" y="10.9" width="107.67" height="81"/><rect class="cls-6" x="1866.67" y="10.9" width="107.67" height="81"/><rect class="cls-6" x="1992.67" y="10.9" width="107.67" height="81"/><rect class="cls-6" x="2122.67" y="10.9" width="107.67" height="81"/><rect class="cls-6" x="2264.67" y="10.9" width="107.67" height="81"/><rect class="cls-6" x="2396.67" y="10.9" width="107.67" height="81"/><rect class="cls-6" x="2530.67" y="10.9" width="107.67" height="81"/><rect class="cls-6" x="2664.67" y="10.9" width="107.67" height="81"/><rect class="cls-6" x="2796.67" y="10.9" width="107.67" height="81"/><rect class="cls-6" x="2926.67" y="10.9" width="107.67" height="81"/><rect class="cls-6" x="3056.67" y="10.9" width="107.67" height="81"/><rect class="cls-6" x="3182.67" y="10.9" width="107.67" height="81"/><rect class="cls-6" x="3308.67" y="10.9" width="107.67" height="81"/><rect class="cls-6" x="3435.33" y="10.9" width="107.67" height="81"/><rect class="cls-6" x="3565.33" y="10.9" width="107.67" height="81"/><rect class="cls-6" x="3707.33" y="10.9" width="107.67" height="81"/><rect class="cls-6" x="3839.33" y="10.9" width="107.67" height="81"/><rect class="cls-6" x="3973.33" y="10.9" width="107.67" height="81"/><rect class="cls-6" x="4107.33" y="10.9" width="107.67" height="81"/><rect class="cls-6" x="4239.33" y="10.9" width="107.67" height="81"/><rect class="cls-6" x="4369.33" y="10.9" width="107.67" height="81"/><rect class="cls-6" x="4499.33" y="10.9" width="107.67" height="81"/><rect class="cls-6" x="4625.33" y="10.9" width="107.67" height="81"/><rect class="cls-6" x="4751.33" y="10.9" width="107.67" height="81"/><rect class="cls-6" x="4878" y="10.9" width="107.67" height="81"/><rect class="cls-6" x="5008" y="10.9" width="107.67" height="81"/><rect class="cls-6" x="5150" y="10.9" width="107.67" height="81"/><rect class="cls-6" x="5282" y="10.9" width="107.67" height="81"/><rect class="cls-6" x="5416" y="10.9" width="107.67" height="81"/><rect class="cls-6" x="5550" y="10.9" width="107.67" height="81"/><rect class="cls-6" x="5682" y="10.9" width="107.67" height="81"/><rect class="cls-6" x="5812" y="10.9" width="107.67" height="81"/><rect class="cls-6" x="5942" y="10.9" width="107.67" height="81"/><rect class="cls-6" x="806.67" y="1024.56" width="107.67" height="81"/><rect class="cls-6" x="948.67" y="1024.56" width="107.67" height="81"/><rect class="cls-6" x="1080.67" y="1024.56" width="107.67" height="81"/><rect class="cls-6" x="1214.67" y="1024.56" width="107.67" height="81"/><rect class="cls-6" x="1348.67" y="1024.56" width="107.67" height="81"/><rect class="cls-6" x="1480.67" y="1024.56" width="107.67" height="81"/><rect class="cls-6" x="1610.67" y="1024.56" width="107.67" height="81"/><rect class="cls-6" x="1740.67" y="1024.56" width="107.67" height="81"/><rect class="cls-6" x="1866.67" y="1024.56" width="107.67" height="81"/><rect class="cls-6" x="1992.67" y="1024.56" width="107.67" height="81"/><rect class="cls-6" x="2122.67" y="1024.56" width="107.67" height="81"/><rect class="cls-6" x="2264.67" y="1024.56" width="107.67" height="81"/><rect class="cls-6" x="2396.67" y="1024.56" width="107.67" height="81"/><rect class="cls-6" x="2530.67" y="1024.56" width="107.67" height="81"/><rect class="cls-6" x="2664.67" y="1024.56" width="107.67" height="81"/><rect class="cls-6" x="2796.67" y="1024.56" width="107.67" height="81"/><rect class="cls-6" x="2926.67" y="1024.56" width="107.67" height="81"/><rect class="cls-6" x="3056.67" y="1024.56" width="107.67" height="81"/><rect class="cls-6" x="3182.67" y="1024.56" width="107.67" height="81"/><rect class="cls-6" x="3308.67" y="1024.56" width="107.67" height="81"/><rect class="cls-6" x="3435.33" y="1024.56" width="107.67" height="81"/><rect class="cls-6" x="3565.33" y="1024.56" width="107.67" height="81"/><rect class="cls-6" x="3707.33" y="1024.56" width="107.67" height="81"/><rect class="cls-6" x="3839.33" y="1024.56" width="107.67" height="81"/><rect class="cls-6" x="3973.33" y="1024.56" width="107.67" height="81"/><rect class="cls-6" x="4107.33" y="1024.56" width="107.67" height="81"/><rect class="cls-6" x="4239.33" y="1024.56" width="107.67" height="81"/><rect class="cls-6" x="4369.33" y="1024.56" width="107.67" height="81"/><rect class="cls-6" x="4499.33" y="1024.56" width="107.67" height="81"/><rect class="cls-6" x="4625.33" y="1024.56" width="107.67" height="81"/><rect class="cls-6" x="4751.33" y="1024.56" width="107.67" height="81"/><rect class="cls-6" x="4878" y="1024.56" width="107.67" height="81"/><rect class="cls-6" x="5008" y="1024.56" width="107.67" height="81"/><rect class="cls-6" x="5150" y="1024.56" width="107.67" height="81"/><rect class="cls-6" x="5282" y="1024.56" width="107.67" height="81"/><rect class="cls-6" x="5416" y="1024.56" width="107.67" height="81"/><rect class="cls-6" x="5550" y="1024.56" width="107.67" height="81"/><rect class="cls-6" x="5682" y="1024.56" width="107.67" height="81"/><rect class="cls-6" x="5812" y="1024.56" width="107.67" height="81"/><rect class="cls-6" x="5942" y="1024.56" width="107.67" height="81"/><rect class="cls-7" x="149.35" y="1029.3" width="30.54" height="136"/><rect class="cls-7" x="883.79" y="487.58" width="30.54" height="136"/><rect class="cls-7" x="1157.79" y="602.58" width="30.54" height="136"/><rect class="cls-7" x="1411.35" y="756.07" width="30.54" height="136"/><rect class="cls-7" x="1411.35" y="518.9" width="30.54" height="136"/><rect class="cls-7" x="1672.35" y="578.01" width="30.54" height="136"/><rect class="cls-7" x="883.79" y="756.07" width="30.54" height="136"/><rect class="cls-7" x="1917.78" y="150.23" width="30.54" height="136" transform="translate(2151.28 -1714.82) rotate(90)"/><rect class="cls-7" x="1573.06" y="150.23" width="30.54" height="136" transform="translate(1806.56 -1370.1) rotate(90)"/><rect class="cls-8" x="1266.62" y="150.23" width="30.54" height="136" transform="translate(1500.12 -1063.66) rotate(90)"/><rect class="cls-7" x="1426.62" y="379.23" width="30.54" height="136" transform="translate(1889.12 -994.66) rotate(90)"/><rect class="cls-7" x="1157.79" y="379.23" width="30.54" height="136" transform="translate(1620.3 -725.83) rotate(90)"/><rect class="cls-7" x="1755.62" y="379.23" width="30.54" height="136" transform="translate(2218.12 -1323.66) rotate(90)"/><rect class="cls-7" x="511.88" y="1027.67" width="30.54" height="136"/><line class="cls-9" x1="1945" y1="857.45" x2="1703.27" y2="599.32"/><line class="cls-9" x1="1962.35" y1="844.57" x2="1720.74" y2="462.77"/><line class="cls-10" x1="1944.67" y1="857.12" x2="1315.56" y2="120.79"/><line class="cls-9" x1="1945" y1="857.45" x2="1355.07" y2="120.38"/><line class="cls-9" x1="1945" y1="857.45" x2="1383.24" y2="120.69"/><line class="cls-9" x1="1963.02" y1="845.69" x2="1708.34" y2="462.79"/><line class="cls-9" x1="1963.02" y1="845.69" x2="1734.48" y2="462.76"/><line class="cls-9" x1="1963.02" y1="845.69" x2="1427.42" y2="120.97"/><circle class="cls-1" cx="3262.94" cy="896.17" r="54.29"/><polygon class="cls-4" points="2915.63 429.57 2891.81 417.29 2868.2 429.95 2872.52 403.51 2853.19 384.96 2879.67 380.89 2891.34 356.78 2903.38 380.71 2929.93 384.35 2910.89 403.2 2915.63 429.57"/><rect class="cls-7" x="2163.68" y="487.58" width="30.54" height="136"/><rect class="cls-7" x="2437.68" y="602.58" width="30.54" height="136"/><rect class="cls-7" x="2691.24" y="756.07" width="30.54" height="136"/><rect class="cls-7" x="2691.24" y="518.9" width="30.54" height="136"/><rect class="cls-7" x="2952.24" y="578.01" width="30.54" height="136"/><rect class="cls-7" x="2163.68" y="756.07" width="30.54" height="136"/><rect class="cls-7" x="3197.67" y="150.23" width="30.54" height="136" transform="translate(3431.17 -2994.7) rotate(90)"/><rect class="cls-7" x="2852.95" y="150.23" width="30.54" height="136" transform="translate(3086.45 -2649.99) rotate(90)"/><rect class="cls-7" x="2546.51" y="150.23" width="30.54" height="136" transform="translate(2780.01 -2343.55) rotate(90)"/><rect class="cls-7" x="2706.51" y="379.23" width="30.54" height="136" transform="translate(3169.01 -2274.55) rotate(90)"/><rect class="cls-7" x="2437.68" y="379.23" width="30.54" height="136" transform="translate(2900.18 -2005.72) rotate(90)"/><rect class="cls-7" x="3035.51" y="379.23" width="30.54" height="136" transform="translate(3498.01 -2603.55) rotate(90)"/><line class="cls-9" x1="3224.89" y1="857.45" x2="2983.16" y2="599.32"/><line class="cls-9" x1="3242.24" y1="844.57" x2="3000.63" y2="462.77"/><line class="cls-10" x1="3224.56" y1="857.12" x2="2595.44" y2="120.79"/><line class="cls-9" x1="3224.89" y1="857.45" x2="2878.37" y2="424.5"/><line class="cls-9" x1="3224.89" y1="857.45" x2="2891.81" y2="417.29"/><line class="cls-9" x1="3242.91" y1="845.69" x2="2988.23" y2="462.79"/><line class="cls-9" x1="3242.91" y1="845.69" x2="3014.37" y2="462.76"/><line class="cls-9" x1="3242.91" y1="845.69" x2="2913.78" y2="400.34"/><rect class="cls-5" x="3354.33" y="115.56" width="1273.33" height="885.33"/><circle class="cls-1" cx="4167.04" cy="395.57" r="54.29"/><polygon class="cls-4" points="4188.96 429.57 4165.15 417.29 4141.53 429.95 4145.85 403.51 4126.52 384.96 4153 380.89 4164.67 356.78 4176.72 380.71 4203.26 384.35 4184.22 403.2 4188.96 429.57"/><rect class="cls-7" x="3437.02" y="487.58" width="30.54" height="136"/><rect class="cls-7" x="3711.02" y="602.58" width="30.54" height="136"/><rect class="cls-7" x="3964.58" y="756.07" width="30.54" height="136"/><rect class="cls-7" x="3964.58" y="518.9" width="30.54" height="136"/><rect class="cls-7" x="4225.58" y="578.01" width="30.54" height="136"/><rect class="cls-7" x="3437.02" y="756.07" width="30.54" height="136"/><rect class="cls-7" x="4471" y="150.23" width="30.54" height="136" transform="translate(4704.5 -4268.04) rotate(90)"/><rect class="cls-7" x="4126.29" y="150.23" width="30.54" height="136" transform="translate(4359.79 -3923.32) rotate(90)"/><rect class="cls-7" x="3819.84" y="150.23" width="30.54" height="136" transform="translate(4053.35 -3616.88) rotate(90)"/><rect class="cls-7" x="3979.84" y="379.23" width="30.54" height="136" transform="translate(4442.35 -3547.88) rotate(90)"/><rect class="cls-7" x="3711.02" y="379.23" width="30.54" height="136" transform="translate(4173.52 -3279.05) rotate(90)"/><rect class="cls-7" x="4308.84" y="379.23" width="30.54" height="136" transform="translate(4771.35 -3876.88) rotate(90)"/><line class="cls-9" x1="4112.87" y1="392.06" x2="3593.49" y2="336.23"/><line class="cls-9" x1="4117.22" y1="370.9" x2="3593.49" y2="217.3"/><line class="cls-10" x1="4112.4" y1="392.04" x2="3593.49" y2="320.01"/><line class="cls-9" x1="4112.87" y1="392.06" x2="3593.49" y2="304.8"/><line class="cls-9" x1="4112.87" y1="392.06" x2="3593.49" y2="290.22"/><line class="cls-9" x1="4118.47" y1="371.29" x2="3593.49" y2="234.73"/><line class="cls-9" x1="4118.47" y1="371.29" x2="3593.49" y2="194.94"/><line class="cls-9" x1="4118.47" y1="371.29" x2="3593.49" y2="262.15"/><rect class="cls-5" x="2078.33" y="116.89" width="5415.76" height="885.33"/><rect class="cls-5" x="4625" y="114.24" width="1273.33" height="885.33"/><rect class="cls-5" x="4625" y="116.89" width="1273.33" height="885.33"/><circle class="cls-1" cx="4929.9" cy="327.83" r="54.29"/><rect class="cls-7" x="4707.68" y="488.9" width="30.54" height="136"/><rect class="cls-7" x="4981.68" y="603.9" width="30.54" height="136"/><rect class="cls-7" x="5235.24" y="757.4" width="30.54" height="136"/><rect class="cls-7" x="5235.24" y="520.23" width="30.54" height="136"/><rect class="cls-7" x="5496.24" y="579.34" width="30.54" height="136"/><rect class="cls-7" x="4707.68" y="757.4" width="30.54" height="136"/><rect class="cls-7" x="5741.67" y="151.56" width="30.54" height="136" transform="translate(5976.5 -5537.38) rotate(90)"/><rect class="cls-7" x="5396.95" y="151.56" width="30.54" height="136" transform="translate(5631.78 -5192.66) rotate(90)"/><rect class="cls-7" x="5090.51" y="151.56" width="30.54" height="136" transform="translate(5325.34 -4886.22) rotate(90)"/><rect class="cls-7" x="5250.51" y="380.56" width="30.54" height="136" transform="translate(5714.34 -4817.22) rotate(90)"/><rect class="cls-7" x="4981.68" y="380.56" width="30.54" height="136" transform="translate(5445.51 -4548.39) rotate(90)"/><rect class="cls-7" x="5579.51" y="380.56" width="30.54" height="136" transform="translate(6043.34 -5146.22) rotate(90)"/><line class="cls-9" x1="4983.79" y1="334.31" x2="5616.78" y2="431.96"/><line class="cls-9" x1="4978.28" y1="355.21" x2="5197.78" y2="433.29"/><line class="cls-10" x1="4984.26" y1="334.36" x2="5523.67" y2="437.77"/><line class="cls-9" x1="4983.79" y1="334.31" x2="5526.78" y2="456.58"/><line class="cls-9" x1="4983.79" y1="334.31" x2="5892.01" y2="564.91"/><line class="cls-9" x1="4977.05" y1="354.75" x2="5222.66" y2="433.29"/><line class="cls-9" x1="4977.05" y1="354.75" x2="5197.78" y2="442.68"/><line class="cls-9" x1="4977.05" y1="354.75" x2="5272.32" y2="433.29"/><line class="cls-11" x1="780.33" y1="-7.1" x2="780.33" y2="1123.23"/><line class="cls-12" x1="134.03" y1="712.41" x2="133.81" y2="823.52"/><line class="cls-12" x1="150.64" y1="712.45" x2="150.42" y2="823.56"/><line class="cls-12" x1="150.75" y1="712.38" x2="150.53" y2="823.49"/><line class="cls-12" x1="167.36" y1="712.41" x2="167.14" y2="823.52"/><line class="cls-12" x1="167.47" y1="712.36" x2="167.25" y2="823.47"/><line class="cls-12" x1="184.08" y1="712.4" x2="183.85" y2="823.51"/><line class="cls-12" x1="184.08" y1="712.4" x2="183.85" y2="823.51"/><line class="cls-12" x1="200.68" y1="712.43" x2="200.46" y2="823.54"/><line class="cls-12" x1="200.68" y1="712.43" x2="200.46" y2="823.54"/><line class="cls-12" x1="217.29" y1="712.46" x2="217.07" y2="823.57"/><rect class="cls-3" x="481.83" y="716.51" width="113.78" height="111.11"/><line class="cls-12" x1="493.47" y1="716.51" x2="493.24" y2="827.62"/><line class="cls-12" x1="510.07" y1="716.54" x2="509.85" y2="827.65"/><line class="cls-12" x1="510.18" y1="716.47" x2="509.96" y2="827.59"/><line class="cls-12" x1="526.79" y1="716.51" x2="526.57" y2="827.62"/><line class="cls-12" x1="526.9" y1="716.46" x2="526.68" y2="827.57"/><line class="cls-12" x1="543.51" y1="716.49" x2="543.29" y2="827.6"/><line class="cls-12" x1="543.51" y1="716.49" x2="543.29" y2="827.6"/><line class="cls-12" x1="560.11" y1="716.52" x2="559.89" y2="827.64"/><line class="cls-12" x1="560.11" y1="716.52" x2="559.89" y2="827.64"/><line class="cls-12" x1="576.72" y1="716.56" x2="576.5" y2="827.67"/><rect class="cls-3" x="821" y="125.17" width="221.33" height="216.15"/><line class="cls-12" x1="843.63" y1="125.17" x2="843.2" y2="341.31"/><line class="cls-12" x1="875.93" y1="125.23" x2="875.5" y2="341.38"/><line class="cls-12" x1="876.15" y1="125.1" x2="875.72" y2="341.25"/><line class="cls-12" x1="908.45" y1="125.17" x2="908.02" y2="341.31"/><line class="cls-12" x1="908.67" y1="125.07" x2="908.24" y2="341.22"/><line class="cls-12" x1="940.98" y1="125.14" x2="940.54" y2="341.28"/><line class="cls-12" x1="940.98" y1="125.14" x2="940.54" y2="341.28"/><line class="cls-12" x1="973.28" y1="125.2" x2="972.85" y2="341.35"/><line class="cls-12" x1="973.28" y1="125.2" x2="972.85" y2="341.35"/><line class="cls-12" x1="1005.59" y1="125.26" x2="1005.15" y2="341.41"/><rect class="cls-3" x="5924.5" y="136.82" width="221.33" height="216.15"/><line class="cls-12" x1="5947.13" y1="136.82" x2="5946.7" y2="352.97"/><rect class="cls-3" x="2099.99" y="127.9" width="221.33" height="216.15"/><line class="cls-12" x1="2122.61" y1="127.9" x2="2122.18" y2="344.05"/><line class="cls-12" x1="2154.92" y1="127.97" x2="2154.49" y2="344.11"/><line class="cls-12" x1="2155.14" y1="127.84" x2="2154.7" y2="343.98"/><line class="cls-12" x1="2187.44" y1="127.9" x2="2187.01" y2="344.05"/><line class="cls-12" x1="2187.66" y1="127.81" x2="2187.22" y2="343.95"/><line class="cls-12" x1="2219.96" y1="127.87" x2="2219.53" y2="344.02"/><line class="cls-12" x1="2219.96" y1="127.87" x2="2219.53" y2="344.02"/><line class="cls-12" x1="2252.27" y1="127.93" x2="2251.83" y2="344.08"/><line class="cls-12" x1="2252.27" y1="127.93" x2="2251.83" y2="344.08"/><line class="cls-12" x1="2284.57" y1="128" x2="2284.14" y2="344.14"/><rect class="cls-3" x="3372.16" y="127.9" width="221.33" height="216.15"/><line class="cls-12" x1="3394.79" y1="127.9" x2="3394.36" y2="344.05"/><line class="cls-12" x1="3427.09" y1="127.97" x2="3426.66" y2="344.11"/><line class="cls-12" x1="3427.31" y1="127.84" x2="3426.88" y2="343.98"/><line class="cls-12" x1="3459.61" y1="127.9" x2="3459.18" y2="344.05"/><line class="cls-12" x1="3459.83" y1="127.81" x2="3459.4" y2="343.95"/><line class="cls-12" x1="3492.14" y1="127.87" x2="3491.7" y2="344.02"/><line class="cls-12" x1="3492.14" y1="127.87" x2="3491.7" y2="344.02"/><line class="cls-12" x1="3524.44" y1="127.93" x2="3524.01" y2="344.08"/><line class="cls-12" x1="3524.44" y1="127.93" x2="3524.01" y2="344.08"/><line class="cls-12" x1="3556.75" y1="128" x2="3556.31" y2="344.14"/><rect class="cls-3" x="4639.67" y="129.45" width="221.33" height="216.15"/><line class="cls-12" x1="4662.3" y1="129.45" x2="4661.86" y2="345.6"/><line class="cls-12" x1="4694.6" y1="129.52" x2="4694.17" y2="345.66"/><line class="cls-12" x1="4694.82" y1="129.39" x2="4694.38" y2="345.54"/><line class="cls-12" x1="4727.12" y1="129.45" x2="4726.69" y2="345.6"/><line class="cls-12" x1="4727.34" y1="129.36" x2="4726.91" y2="345.5"/><line class="cls-12" x1="4759.64" y1="129.42" x2="4759.21" y2="345.57"/><line class="cls-12" x1="4759.64" y1="129.42" x2="4759.21" y2="345.57"/><line class="cls-12" x1="4791.95" y1="129.49" x2="4791.52" y2="345.63"/><line class="cls-12" x1="4791.95" y1="129.49" x2="4791.52" y2="345.63"/><line class="cls-12" x1="4824.25" y1="129.55" x2="4823.82" y2="345.7"/><polygon class="cls-4" points="4765.17 283.54 4741.36 271.26 4717.74 283.91 4722.06 257.47 4702.73 238.92 4729.21 234.86 4740.88 210.74 4752.93 234.67 4779.47 238.32 4760.43 257.17 4765.17 283.54"/><line class="cls-11" x1="777.67" y1="1124.56" x2="6307.67" y2="1121.4"/><path class="cls-2" d="M1317.3,1250.31v7.8h-29.64v-7.8Z"/><path class="cls-2" d="M1403.57,1246.83c0,26.52-9.84,41.16-27.11,41.16-15.24,0-25.56-14.28-25.8-40.08,0-26.16,11.28-40.56,27.12-40.56C1394.21,1207.35,1403.57,1222,1403.57,1246.83Zm-42.35,1.2c0,20.28,6.24,31.8,15.84,31.8,10.79,0,16-12.6,16-32.52,0-19.2-4.92-31.8-15.83-31.8C1367.94,1215.51,1361.22,1226.79,1361.22,1248Z"/><path class="cls-2" d="M1414.13,1280.43c0-4.44,3-7.56,7.2-7.56s7.08,3.12,7.08,7.56-2.76,7.56-7.2,7.56C1417,1288,1414.13,1284.75,1414.13,1280.43Z"/><path class="cls-2" d="M1490,1246.83c0,26.52-9.84,41.16-27.12,41.16-15.24,0-25.56-14.28-25.8-40.08,0-26.16,11.28-40.56,27.12-40.56C1480.61,1207.35,1490,1222,1490,1246.83Zm-42.36,1.2c0,20.28,6.24,31.8,15.84,31.8,10.8,0,16-12.6,16-32.52,0-19.2-4.92-31.8-15.84-31.8C1454.33,1215.51,1447.61,1226.79,1447.61,1248Z"/><path class="cls-2" d="M1551.53,1246.83c0,26.52-9.84,41.16-27.12,41.16-15.24,0-25.56-14.28-25.8-40.08,0-26.16,11.28-40.56,27.12-40.56C1542.17,1207.35,1551.53,1222,1551.53,1246.83Zm-42.36,1.2c0,20.28,6.24,31.8,15.84,31.8,10.8,0,16-12.6,16-32.52,0-19.2-4.92-31.8-15.84-31.8C1515.89,1215.51,1509.17,1226.79,1509.17,1248Z"/><path class="cls-2" d="M1584.17,1218.51h-.24l-13.56,7.32-2-8,17-9.12h9v78h-10.2Z"/><path class="cls-2" d="M1207,1378.67l-15.84-48.54h6.77l7.56,23.91c2.09,6.55,3.89,12.46,5.18,18.15h.15c1.37-5.62,3.38-11.74,5.54-18.08l8.21-24h6.7l-17.36,48.54Z"/><path class="cls-2" d="M1265.42,1361c0,12.89-8.93,18.51-17.36,18.51-9.43,0-16.7-6.91-16.7-17.93,0-11.67,7.63-18.51,17.28-18.51C1258.65,1343,1265.42,1350.3,1265.42,1361Zm-27.65.36c0,7.64,4.39,13.4,10.58,13.4s10.59-5.69,10.59-13.54c0-5.91-3-13.39-10.44-13.39S1237.77,1354.69,1237.77,1361.31Z"/><path class="cls-2" d="M1305,1361c0,12.89-8.93,18.51-17.36,18.51-9.43,0-16.7-6.91-16.7-17.93,0-11.67,7.63-18.51,17.28-18.51C1298.18,1343,1305,1350.3,1305,1361Zm-27.66.36c0,7.64,4.4,13.4,10.59,13.4s10.58-5.69,10.58-13.54c0-5.91-3-13.39-10.44-13.39S1277.29,1354.69,1277.29,1361.31Z"/><path class="cls-2" d="M1312.93,1354.69c0-4.11-.07-7.63-.28-10.87h5.54l.22,6.84h.28c1.59-4.68,5.4-7.64,9.65-7.64a7,7,0,0,1,1.8.22v6a9.09,9.09,0,0,0-2.16-.22c-4.46,0-7.63,3.38-8.49,8.14a17.13,17.13,0,0,0-.29,2.95v18.58h-6.27Z"/><path class="cls-2" d="M1351.74,1327.54h6.34v21.75h.14a11.76,11.76,0,0,1,4.54-4.47,13,13,0,0,1,6.48-1.8c4.68,0,12.17,2.88,12.17,14.91v20.74h-6.34v-20c0-5.62-2.09-10.37-8.06-10.37a9.1,9.1,0,0,0-8.5,6.34,7.65,7.65,0,0,0-.43,3v21h-6.34Z"/><path class="cls-2" d="M1395.23,1362.39c.14,8.57,5.62,12.1,12,12.1a22.89,22.89,0,0,0,9.65-1.8l1.08,4.54a28.19,28.19,0,0,1-11.59,2.16c-10.73,0-17.14-7.06-17.14-17.57s6.19-18.8,16.35-18.8c11.37,0,14.4,10,14.4,16.42a23.89,23.89,0,0,1-.22,3Zm18.58-4.53c.07-4-1.66-10.3-8.79-10.3-6.41,0-9.22,5.9-9.72,10.3Z"/><path class="cls-2" d="M1435.4,1333.81v10h9.08v4.82h-9.08v18.79c0,4.32,1.23,6.77,4.76,6.77a14,14,0,0,0,3.67-.43l.29,4.75a15.4,15.4,0,0,1-5.62.87,8.78,8.78,0,0,1-6.84-2.67c-1.8-1.87-2.45-5-2.45-9.07v-19h-5.4v-4.82h5.4v-8.36Z"/><path class="cls-2" d="M1466,1372.19a16.66,16.66,0,0,0,8.35,2.52c4.61,0,6.77-2.31,6.77-5.19s-1.8-4.68-6.48-6.41c-6.26-2.23-9.21-5.69-9.21-9.86,0-5.62,4.53-10.23,12-10.23a17.41,17.41,0,0,1,8.57,2.16l-1.58,4.61a13.62,13.62,0,0,0-7.13-2c-3.75,0-5.84,2.16-5.84,4.75,0,2.88,2.09,4.18,6.63,5.9,6.05,2.31,9.14,5.33,9.14,10.52,0,6.12-4.75,10.44-13,10.44a19.86,19.86,0,0,1-9.79-2.38Z"/><path class="cls-2" d="M1503,1333.81v10h9.07v4.82H1503v18.79c0,4.32,1.22,6.77,4.75,6.77a14,14,0,0,0,3.68-.43l.28,4.75a15.3,15.3,0,0,1-5.61.87,8.76,8.76,0,0,1-6.84-2.67c-1.8-1.87-2.45-5-2.45-9.07v-19h-5.4v-4.82h5.4v-8.36Z"/><path class="cls-2" d="M1526.27,1334a3.93,3.93,0,0,1-7.85,0,3.86,3.86,0,0,1,4-4A3.77,3.77,0,0,1,1526.27,1334Zm-7.06,44.65v-34.85h6.34v34.85Z"/><path class="cls-2" d="M1536.06,1327.54h6.33v51.13h-6.33Z"/><path class="cls-2" d="M1552.19,1372.19a16.62,16.62,0,0,0,8.35,2.52c4.61,0,6.77-2.31,6.77-5.19s-1.8-4.68-6.48-6.41c-6.27-2.23-9.22-5.69-9.22-9.86,0-5.62,4.54-10.23,12-10.23a17.41,17.41,0,0,1,8.57,2.16l-1.58,4.61a13.62,13.62,0,0,0-7.13-2c-3.74,0-5.83,2.16-5.83,4.75,0,2.88,2.09,4.18,6.62,5.9,6,2.31,9.15,5.33,9.15,10.52,0,6.12-4.76,10.44-13,10.44a19.89,19.89,0,0,1-9.79-2.38Z"/><path class="cls-2" d="M1589.19,1333.81v10h9.08v4.82h-9.08v18.79c0,4.32,1.23,6.77,4.76,6.77a14,14,0,0,0,3.67-.43l.29,4.75a15.4,15.4,0,0,1-5.62.87,8.78,8.78,0,0,1-6.84-2.67c-1.8-1.87-2.45-5-2.45-9.07v-19h-5.4v-4.82h5.4v-8.36Z"/><path class="cls-2" d="M1624.69,1378.67l-.5-4.4H1624a13,13,0,0,1-10.66,5.19c-7,0-10.65-5-10.65-10,0-8.42,7.48-13,20.95-13v-.72c0-2.88-.79-8.07-7.92-8.07a17.28,17.28,0,0,0-9.07,2.6l-1.44-4.18a21.63,21.63,0,0,1,11.45-3.1c10.65,0,13.24,7.28,13.24,14.26v13a49.33,49.33,0,0,0,.58,8.36Zm-.94-17.79c-6.91-.14-14.76,1.08-14.76,7.85,0,4.1,2.74,6,6,6a8.65,8.65,0,0,0,8.42-5.83,6.52,6.52,0,0,0,.36-2Z"/><path class="cls-2" d="M1659.39,1378.67l-.5-4.4h-.22a13,13,0,0,1-10.65,5.19c-7.06,0-10.66-5-10.66-10,0-8.42,7.49-13,21-13v-.72c0-2.88-.79-8.07-7.92-8.07a17.31,17.31,0,0,0-9.07,2.6l-1.44-4.18a21.66,21.66,0,0,1,11.45-3.1c10.66,0,13.25,7.28,13.25,14.26v13a49.4,49.4,0,0,0,.57,8.36Zm-.93-17.79c-6.92-.14-14.76,1.08-14.76,7.85,0,4.1,2.73,6,6,6a8.68,8.68,0,0,0,8.43-5.83,6.83,6.83,0,0,0,.36-2Z"/><path class="cls-2" d="M1674.8,1353.25c0-3.6-.07-6.55-.29-9.43h5.62l.36,5.76h.14a12.81,12.81,0,0,1,11.52-6.56c4.83,0,12.32,2.88,12.32,14.84v20.81h-6.34v-20.09c0-5.62-2.09-10.3-8.07-10.3a9.28,9.28,0,0,0-8.92,9.43v21h-6.34Z"/><path class="cls-13" d="M1235.61,1448.79c.14,8.57,5.61,12.1,12,12.1a22.89,22.89,0,0,0,9.65-1.8l1.08,4.54a28.21,28.21,0,0,1-11.6,2.16c-10.72,0-17.13-7.06-17.13-17.57s6.19-18.8,16.34-18.8c11.38,0,14.4,10,14.4,16.42a24.32,24.32,0,0,1-.21,3Zm18.57-4.53c.08-4-1.65-10.3-8.78-10.3-6.41,0-9.22,5.91-9.72,10.3Z"/><path class="cls-13" d="M1268.15,1439.65c0-3.6-.07-6.55-.29-9.43h5.62l.36,5.76h.14a12.83,12.83,0,0,1,11.52-6.56c4.83,0,12.32,2.88,12.32,14.84v20.81h-6.34V1445c0-5.62-2.09-10.3-8.07-10.3a9.28,9.28,0,0,0-8.92,9.43v21h-6.34Z"/><path class="cls-13" d="M1323.37,1439.65c0-3.6-.07-6.55-.29-9.43h5.62l.36,5.76h.14a12.83,12.83,0,0,1,11.53-6.56c4.82,0,12.31,2.88,12.31,14.84v20.81h-6.34V1445c0-5.62-2.09-10.3-8.06-10.3a9.28,9.28,0,0,0-8.93,9.43v21h-6.34Z"/><path class="cls-13" d="M1370.39,1420.42a3.93,3.93,0,0,1-7.85,0,3.86,3.86,0,0,1,4-4A3.76,3.76,0,0,1,1370.39,1420.42Zm-7.06,44.65v-34.85h6.34v34.85Z"/><path class="cls-13" d="M1383.71,1448.79c.14,8.57,5.61,12.1,12,12.1a22.89,22.89,0,0,0,9.65-1.8l1.08,4.54a28.19,28.19,0,0,1-11.59,2.16c-10.73,0-17.14-7.06-17.14-17.57s6.19-18.8,16.34-18.8c11.38,0,14.41,10,14.41,16.42a23.89,23.89,0,0,1-.22,3Zm18.57-4.53c.08-4-1.65-10.3-8.78-10.3-6.41,0-9.22,5.91-9.72,10.3Z"/><path class="cls-13" d="M1423.88,1420.21v10H1433V1435h-9.08v18.79c0,4.32,1.23,6.77,4.76,6.77a14,14,0,0,0,3.67-.43l.29,4.75a15.4,15.4,0,0,1-5.62.87,8.78,8.78,0,0,1-6.84-2.67c-1.8-1.87-2.45-5-2.45-9.07v-19h-5.4v-4.82h5.4v-8.36Z"/><path class="cls-13" d="M1455.34,1441.09c0-4.1-.07-7.63-.28-10.87h5.54l.22,6.84h.29c1.58-4.68,5.4-7.64,9.64-7.64a7,7,0,0,1,1.8.22v6a9.09,9.09,0,0,0-2.16-.22c-4.46,0-7.63,3.39-8.49,8.14a17.13,17.13,0,0,0-.29,3v18.58h-6.27Z"/><path class="cls-13" d="M1509.71,1447.35c0,12.89-8.93,18.51-17.36,18.51-9.43,0-16.7-6.91-16.7-17.93,0-11.67,7.63-18.51,17.28-18.51C1502.94,1429.42,1509.71,1436.7,1509.71,1447.35Zm-27.65.36c0,7.64,4.39,13.4,10.58,13.4s10.59-5.69,10.59-13.54c0-5.9-3-13.39-10.44-13.39S1482.06,1441.09,1482.06,1447.71Z"/><path class="cls-13" d="M1525.33,1420.21v10h9.07V1435h-9.07v18.79c0,4.32,1.22,6.77,4.75,6.77a13.89,13.89,0,0,0,3.67-.43l.29,4.75a15.34,15.34,0,0,1-5.61.87,8.8,8.8,0,0,1-6.85-2.67c-1.8-1.87-2.44-5-2.44-9.07v-19h-5.4v-4.82h5.4v-8.36Z"/><path class="cls-13" d="M1544.62,1448.79c.15,8.57,5.62,12.1,12,12.1a22.93,22.93,0,0,0,9.65-1.8l1.08,4.54a28.24,28.24,0,0,1-11.6,2.16c-10.73,0-17.13-7.06-17.13-17.57s6.19-18.8,16.34-18.8c11.38,0,14.4,10,14.4,16.42a24.32,24.32,0,0,1-.21,3Zm18.58-4.53c.07-4-1.65-10.3-8.78-10.3-6.41,0-9.22,5.91-9.72,10.3Z"/><path class="cls-13" d="M1577.17,1441.09c0-4.1-.07-7.63-.29-10.87h5.54l.22,6.84h.29c1.58-4.68,5.4-7.64,9.65-7.64a7,7,0,0,1,1.8.22v6a9.21,9.21,0,0,0-2.16-.22c-4.47,0-7.64,3.39-8.5,8.14a18.19,18.19,0,0,0-.29,3v18.58h-6.26Z"/><path class="cls-13" d="M1603.52,1448.79c.14,8.57,5.62,12.1,12,12.1a22.86,22.86,0,0,0,9.65-1.8l1.08,4.54a28.19,28.19,0,0,1-11.59,2.16c-10.73,0-17.14-7.06-17.14-17.57s6.19-18.8,16.35-18.8c11.37,0,14.4,10,14.4,16.42a23.89,23.89,0,0,1-.22,3Zm18.58-4.53c.07-4-1.66-10.3-8.79-10.3-6.41,0-9.21,5.91-9.72,10.3Z"/><path class="cls-13" d="M1636.06,1439.65c0-3.6-.07-6.55-.29-9.43h5.62l.36,5.76h.15a12.81,12.81,0,0,1,11.52-6.56c4.82,0,12.31,2.88,12.31,14.84v20.81h-6.34V1445c0-5.62-2.08-10.3-8.06-10.3a9.28,9.28,0,0,0-8.93,9.43v21h-6.34Z"/><path class="cls-2" d="M2592.44,1222.83V1251h27.12v7.2h-27.12v28.44h-7.68v-28.44h-27.12V1251h27.12v-28.2Z"/><path class="cls-2" d="M2707,1246.83c0,26.52-9.84,41.16-27.12,41.16-15.24,0-25.56-14.28-25.8-40.08,0-26.16,11.28-40.56,27.12-40.56C2697.68,1207.35,2707,1222,2707,1246.83Zm-42.36,1.2c0,20.28,6.24,31.8,15.84,31.8,10.8,0,16-12.6,16-32.52,0-19.2-4.92-31.8-15.84-31.8C2671.4,1215.51,2664.68,1226.79,2664.68,1248Z"/><path class="cls-2" d="M2717.6,1280.43c0-4.44,3-7.56,7.2-7.56s7.08,3.12,7.08,7.56-2.76,7.56-7.2,7.56C2720.48,1288,2717.6,1284.75,2717.6,1280.43Z"/><path class="cls-2" d="M2793.43,1246.83c0,26.52-9.84,41.16-27.12,41.16-15.23,0-25.56-14.28-25.79-40.08,0-26.16,11.27-40.56,27.11-40.56C2784.07,1207.35,2793.43,1222,2793.43,1246.83Zm-42.35,1.2c0,20.28,6.23,31.8,15.83,31.8,10.8,0,16-12.6,16-32.52,0-19.2-4.92-31.8-15.84-31.8C2757.79,1215.51,2751.08,1226.79,2751.08,1248Z"/><path class="cls-2" d="M2855,1246.83c0,26.52-9.84,41.16-27.12,41.16-15.24,0-25.56-14.28-25.8-40.08,0-26.16,11.28-40.56,27.12-40.56C2845.63,1207.35,2855,1222,2855,1246.83Zm-42.36,1.2c0,20.28,6.24,31.8,15.84,31.8,10.8,0,16-12.6,16-32.52,0-19.2-4.92-31.8-15.84-31.8C2819.35,1215.51,2812.63,1226.79,2812.63,1248Z"/><path class="cls-2" d="M2887.63,1218.51h-.24l-13.56,7.32-2-8,17-9.12h9v78h-10.2Z"/><path class="cls-2" d="M2461.76,1375l26.93-39.39v-.22h-24.62v-5.26h32.76V1334L2470,1373.19v.22h27.15v5.26h-35.43Z"/><path class="cls-2" d="M2535.35,1361c0,12.89-8.93,18.51-17.35,18.51-9.44,0-16.71-6.91-16.71-17.93,0-11.67,7.63-18.51,17.28-18.51C2528.58,1343,2535.35,1350.3,2535.35,1361Zm-27.65.36c0,7.64,4.39,13.4,10.59,13.4,6,0,10.58-5.69,10.58-13.54,0-5.91-2.95-13.39-10.44-13.39S2507.7,1354.69,2507.7,1361.31Z"/><path class="cls-2" d="M2543.34,1327.54h6.34v51.13h-6.34Z"/><path class="cls-2" d="M2579.63,1378.67l-.5-4.4h-.22a13,13,0,0,1-10.66,5.19c-7.05,0-10.66-5-10.66-10,0-8.42,7.49-13,21-13v-.72c0-2.88-.79-8.07-7.92-8.07a17.28,17.28,0,0,0-9.07,2.6l-1.44-4.18a21.62,21.62,0,0,1,11.44-3.1c10.66,0,13.25,7.28,13.25,14.26v13a49.33,49.33,0,0,0,.58,8.36Zm-.94-17.79c-6.91-.14-14.76,1.08-14.76,7.85,0,4.1,2.74,6,6,6a8.67,8.67,0,0,0,8.42-5.83,6.52,6.52,0,0,0,.36-2Z"/><path class="cls-2" d="M2595,1353.25c0-3.6-.07-6.55-.28-9.43h5.61l.36,5.76h.15a12.81,12.81,0,0,1,11.52-6.56c4.82,0,12.31,2.88,12.31,14.84v20.81h-6.34v-20.09c0-5.62-2.08-10.3-8.06-10.3a9,9,0,0,0-8.5,6.48,9.31,9.31,0,0,0-.43,3v21H2595Z"/><path class="cls-2" d="M2665,1343.82c-.14,2.52-.29,5.32-.29,9.57v20.24c0,8-1.58,12.89-5,15.91-3.38,3.17-8.28,4.18-12.67,4.18-4.17,0-8.78-1-11.59-2.88l1.58-4.83a19.69,19.69,0,0,0,10.23,2.74c6.48,0,11.23-3.39,11.23-12.17v-3.89h-.14c-2,3.24-5.69,5.83-11.09,5.83-8.64,0-14.84-7.34-14.84-17,0-11.81,7.71-18.51,15.7-18.51,6,0,9.36,3.17,10.87,6h.15l.29-5.25Zm-6.55,13.75a9,9,0,0,0-.36-2.88,9.13,9.13,0,0,0-8.86-6.7c-6.05,0-10.37,5.11-10.37,13.18,0,6.84,3.46,12.53,10.3,12.53a9.25,9.25,0,0,0,8.78-6.48,11.07,11.07,0,0,0,.51-3.39Z"/><path class="cls-2" d="M2720.6,1327.54v42.13c0,3.09.08,6.62.29,9h-5.69l-.28-6.05h-.15c-1.94,3.89-6.19,6.84-11.88,6.84-8.42,0-14.91-7.13-14.91-17.71-.07-11.6,7.13-18.73,15.63-18.73,5.33,0,8.93,2.52,10.51,5.33h.15v-20.81Zm-6.33,30.46a11.47,11.47,0,0,0-.29-2.66,9.32,9.32,0,0,0-9.15-7.35c-6.55,0-10.44,5.76-10.44,13.47,0,7,3.46,12.89,10.3,12.89a9.53,9.53,0,0,0,9.29-7.56,11.35,11.35,0,0,0,.29-2.74Z"/><path class="cls-2" d="M2750.41,1378.67l-.5-4.4h-.22a13,13,0,0,1-10.66,5.19c-7.05,0-10.65-5-10.65-10,0-8.42,7.48-13,20.95-13v-.72c0-2.88-.79-8.07-7.92-8.07a17.28,17.28,0,0,0-9.07,2.6l-1.44-4.18a21.63,21.63,0,0,1,11.45-3.1c10.65,0,13.24,7.28,13.24,14.26v13a49.33,49.33,0,0,0,.58,8.36Zm-.94-17.79c-6.91-.14-14.76,1.08-14.76,7.85,0,4.1,2.74,6,6,6a8.65,8.65,0,0,0,8.42-5.83,6.52,6.52,0,0,0,.36-2Z"/><path class="cls-2" d="M2773.16,1333.81v10h9.07v4.82h-9.07v18.79c0,4.32,1.23,6.77,4.75,6.77a14,14,0,0,0,3.68-.43l.28,4.75a15.3,15.3,0,0,1-5.61.87,8.78,8.78,0,0,1-6.84-2.67c-1.8-1.87-2.45-5-2.45-9.07v-19h-5.4v-4.82h5.4v-8.36Z"/><path class="cls-2" d="M2834.72,1327.54v42.13c0,3.09.07,6.62.29,9h-5.69l-.29-6.05h-.14c-1.94,3.89-6.19,6.84-11.88,6.84-8.43,0-14.91-7.13-14.91-17.71-.07-11.6,7.13-18.73,15.63-18.73,5.33,0,8.93,2.52,10.51,5.33h.15v-20.81Zm-6.33,30.46a11.47,11.47,0,0,0-.29-2.66A9.33,9.33,0,0,0,2819,1348c-6.55,0-10.44,5.76-10.44,13.47,0,7,3.46,12.89,10.3,12.89a9.53,9.53,0,0,0,9.29-7.56,11.35,11.35,0,0,0,.29-2.74Z"/><path class="cls-2" d="M2848.76,1362.39c.14,8.57,5.62,12.1,11.95,12.1a22.89,22.89,0,0,0,9.65-1.8l1.08,4.54a28.19,28.19,0,0,1-11.59,2.16c-10.73,0-17.14-7.06-17.14-17.57s6.19-18.8,16.35-18.8c11.37,0,14.4,10,14.4,16.42a23.89,23.89,0,0,1-.22,3Zm18.58-4.53c.07-4-1.66-10.3-8.79-10.3-6.41,0-9.22,5.9-9.72,10.3Z"/><path class="cls-2" d="M2464,1458.59a16.62,16.62,0,0,0,8.35,2.52c4.61,0,6.77-2.31,6.77-5.19s-1.8-4.68-6.48-6.41c-6.27-2.23-9.22-5.68-9.22-9.86,0-5.62,4.54-10.23,12-10.23a17.41,17.41,0,0,1,8.57,2.16l-1.58,4.61a13.62,13.62,0,0,0-7.13-2c-3.74,0-5.83,2.16-5.83,4.75,0,2.88,2.09,4.18,6.62,5.9,6,2.31,9.15,5.33,9.15,10.52,0,6.12-4.75,10.44-13,10.44a19.89,19.89,0,0,1-9.79-2.38Z"/><path class="cls-2" d="M2501,1420.21v10h9.08V1435H2501v18.79c0,4.32,1.23,6.77,4.76,6.77a14,14,0,0,0,3.67-.43l.29,4.75a15.4,15.4,0,0,1-5.62.87,8.78,8.78,0,0,1-6.84-2.67c-1.8-1.87-2.45-5-2.45-9.07v-19h-5.4v-4.82h5.4v-8.36Z"/><path class="cls-2" d="M2546.37,1455.56c0,3.6.07,6.77.28,9.51H2541l-.36-5.69h-.15a13.1,13.1,0,0,1-11.52,6.48c-5.47,0-12-3-12-15.27v-20.37h6.33v19.29c0,6.63,2,11.09,7.78,11.09a9.15,9.15,0,0,0,8.35-5.76,9.25,9.25,0,0,0,.58-3.24v-21.38h6.34Z"/><path class="cls-2" d="M2587,1413.94v42.13c0,3.09.08,6.62.29,9h-5.69l-.28-6h-.15c-1.94,3.89-6.19,6.84-11.88,6.84-8.42,0-14.91-7.13-14.91-17.71-.07-11.6,7.13-18.73,15.63-18.73,5.33,0,8.93,2.52,10.51,5.33h.15v-20.81Zm-6.33,30.46a11.47,11.47,0,0,0-.29-2.66,9.33,9.33,0,0,0-9.15-7.35c-6.55,0-10.44,5.76-10.44,13.47,0,7.05,3.46,12.89,10.3,12.89a9.53,9.53,0,0,0,9.29-7.56,11.35,11.35,0,0,0,.29-2.74Z"/><path class="cls-2" d="M2601,1448.79c.14,8.57,5.62,12.1,11.95,12.1a22.86,22.86,0,0,0,9.65-1.8l1.08,4.54a28.19,28.19,0,0,1-11.59,2.16c-10.73,0-17.14-7.06-17.14-17.57s6.19-18.8,16.35-18.8c11.37,0,14.4,10,14.4,16.42a23.89,23.89,0,0,1-.22,3Zm18.58-4.53c.07-4-1.66-10.3-8.79-10.3-6.4,0-9.21,5.91-9.72,10.3Z"/><path class="cls-2" d="M2633.55,1439.65c0-3.6-.07-6.55-.28-9.43h5.61l.36,5.76h.15a12.81,12.81,0,0,1,11.52-6.56c4.82,0,12.31,2.88,12.31,14.84v20.81h-6.34V1445c0-5.62-2.08-10.3-8.06-10.3a9.28,9.28,0,0,0-8.93,9.43v21h-6.34Z"/><path class="cls-2" d="M2680.86,1420.21v10h9.07V1435h-9.07v18.79c0,4.32,1.22,6.77,4.75,6.77a13.89,13.89,0,0,0,3.67-.43l.29,4.75a15.36,15.36,0,0,1-5.62.87,8.79,8.79,0,0,1-6.84-2.67c-1.8-1.87-2.44-5-2.44-9.07v-19h-5.4v-4.82h5.4v-8.36Z"/><path class="cls-2" d="M2719.38,1420.42a3.93,3.93,0,0,1-7.85,0,3.86,3.86,0,0,1,4-4A3.77,3.77,0,0,1,2719.38,1420.42Zm-7.06,44.65v-34.85h6.34v34.85Z"/><path class="cls-2" d="M2729.17,1439.65c0-3.6-.07-6.55-.29-9.43h5.62l.36,5.76h.14a12.83,12.83,0,0,1,11.52-6.56c4.83,0,12.31,2.88,12.31,14.84v20.81h-6.33V1445c0-5.62-2.09-10.3-8.07-10.3a9.32,9.32,0,0,0-8.93,9.43v21h-6.33Z"/><path class="cls-2" d="M2780.43,1461.4l15.77-20.53c1.51-1.87,3-3.53,4.54-5.4v-.14h-18.87v-5.11h26.57l-.07,4-15.55,20.23c-1.44,1.94-2.88,3.67-4.47,5.47v.15h20.38v5h-28.3Z"/><path class="cls-2" d="M2822.26,1420.42a3.93,3.93,0,0,1-7.85,0,3.86,3.86,0,0,1,4-4A3.76,3.76,0,0,1,2822.26,1420.42Zm-7.05,44.65v-34.85h6.33v34.85Z"/><path class="cls-2" d="M2856.9,1463.77a23.26,23.26,0,0,1-10,2c-10.52,0-17.36-7.13-17.36-17.79s7.35-18.5,18.73-18.5a21.08,21.08,0,0,1,8.78,1.8l-1.44,4.89a14.74,14.74,0,0,0-7.34-1.65c-8,0-12.32,5.9-12.32,13.17,0,8.07,5.19,13,12.1,13a18,18,0,0,0,7.78-1.73Z"/><path class="cls-2" d="M2864.31,1413.94h6.34v21.75h.14a11.76,11.76,0,0,1,4.54-4.47,13,13,0,0,1,6.48-1.8c4.68,0,12.17,2.88,12.17,14.91v20.74h-6.34v-20c0-5.62-2.09-10.37-8.06-10.37a9.1,9.1,0,0,0-8.5,6.34,7.65,7.65,0,0,0-.43,3v21h-6.34Z"/><path class="cls-2" d="M2911.61,1420.21v10h9.08V1435h-9.08v18.79c0,4.32,1.23,6.77,4.76,6.77a14,14,0,0,0,3.67-.43l.29,4.75a15.4,15.4,0,0,1-5.62.87,8.78,8.78,0,0,1-6.84-2.67c-1.8-1.87-2.45-5-2.45-9.07v-19H2900v-4.82h5.4v-8.36Z"/><path class="cls-2" d="M2950.13,1420.42a3.93,3.93,0,0,1-7.85,0,3.86,3.86,0,0,1,4-4A3.76,3.76,0,0,1,2950.13,1420.42Zm-7.05,44.65v-34.85h6.33v34.85Z"/><path class="cls-2" d="M2959.06,1458.59a16.62,16.62,0,0,0,8.35,2.52c4.61,0,6.77-2.31,6.77-5.19s-1.8-4.68-6.48-6.41c-6.26-2.23-9.22-5.68-9.22-9.86,0-5.62,4.54-10.23,12-10.23a17.44,17.44,0,0,1,8.57,2.16l-1.59,4.61a13.59,13.59,0,0,0-7.13-2c-3.74,0-5.83,2.16-5.83,4.75,0,2.88,2.09,4.18,6.63,5.9,6.05,2.31,9.14,5.33,9.14,10.52,0,6.12-4.75,10.44-13,10.44a19.83,19.83,0,0,1-9.79-2.38Z"/><path class="cls-2" d="M3778.9,1222.83V1251H3806v7.2H3778.9v28.44h-7.68v-28.44H3744.1V1251h27.12v-28.2Z"/><path class="cls-2" d="M3868.06,1246.83c0,26.52-9.84,41.16-27.12,41.16-15.24,0-25.56-14.28-25.8-40.08,0-26.16,11.28-40.56,27.12-40.56C3858.7,1207.35,3868.06,1222,3868.06,1246.83Zm-42.36,1.2c0,20.28,6.24,31.8,15.84,31.8,10.8,0,16-12.6,16-32.52,0-19.2-4.92-31.8-15.84-31.8C3832.42,1215.51,3825.7,1226.79,3825.7,1248Z"/><path class="cls-2" d="M3878.62,1280.43c0-4.44,3-7.56,7.2-7.56s7.08,3.12,7.08,7.56-2.76,7.56-7.2,7.56C3881.5,1288,3878.62,1284.75,3878.62,1280.43Z"/><path class="cls-2" d="M3925.54,1218.51h-.24l-13.56,7.32-2-8,17-9.12h9v78h-10.2Z"/><path class="cls-2" d="M4017.46,1250.31v7.8h-29.64v-7.8Z"/><path class="cls-2" d="M4084.65,1258.11,4029,1286.67v-8.28l47.27-23.52v-.24L4029,1231.11v-8.28l55.67,28.56Z"/><path class="cls-14" d="M4157.61,1222.83V1251h27.12v7.2h-27.12v28.44h-7.68v-28.44h-27.12V1251h27.12v-28.2Z"/><path class="cls-14" d="M4272.21,1246.83c0,26.52-9.84,41.16-27.12,41.16-15.24,0-25.56-14.28-25.8-40.08,0-26.16,11.28-40.56,27.12-40.56C4262.85,1207.35,4272.21,1222,4272.21,1246.83Zm-42.36,1.2c0,20.28,6.24,31.8,15.84,31.8,10.8,0,16-12.6,16-32.52,0-19.2-4.92-31.8-15.84-31.8C4236.57,1215.51,4229.85,1226.79,4229.85,1248Z"/><path class="cls-14" d="M4282.77,1280.43c0-4.44,3-7.56,7.2-7.56s7.08,3.12,7.08,7.56-2.76,7.56-7.2,7.56C4285.65,1288,4282.77,1284.75,4282.77,1280.43Z"/><path class="cls-14" d="M4353.33,1217.55h-29.76l-3,20a41.7,41.7,0,0,1,6.36-.48,33,33,0,0,1,16.8,4.2c6.12,3.48,11.16,10.2,11.16,20,0,15.24-12.12,26.64-29,26.64-8.52,0-15.72-2.4-19.44-4.8l2.64-8a34.93,34.93,0,0,0,16.68,4.32c10,0,18.48-6.48,18.48-16.92-.12-10.08-6.84-17.28-22.44-17.28a80.69,80.69,0,0,0-10.8.84l5-37.44h37.32Z"/><path class="cls-2" d="M3780.42,1378.67l-15.85-48.54h6.77l7.56,23.91c2.09,6.55,3.89,12.46,5.19,18.15h.14c1.37-5.62,3.39-11.74,5.55-18.08l8.2-24h6.7l-17.35,48.54Z"/><path class="cls-2" d="M3838.88,1361c0,12.89-8.93,18.51-17.35,18.51-9.43,0-16.71-6.91-16.71-17.93,0-11.67,7.64-18.51,17.28-18.51C3832.11,1343,3838.88,1350.3,3838.88,1361Zm-27.65.36c0,7.64,4.39,13.4,10.59,13.4,6,0,10.58-5.69,10.58-13.54,0-5.91-3-13.39-10.44-13.39S3811.23,1354.69,3811.23,1361.31Z"/><path class="cls-2" d="M3878.41,1361c0,12.89-8.93,18.51-17.35,18.51-9.44,0-16.71-6.91-16.71-17.93,0-11.67,7.63-18.51,17.28-18.51C3871.64,1343,3878.41,1350.3,3878.41,1361Zm-27.65.36c0,7.64,4.39,13.4,10.58,13.4s10.59-5.69,10.59-13.54c0-5.91-2.95-13.39-10.44-13.39S3850.76,1354.69,3850.76,1361.31Z"/><path class="cls-2" d="M3886.4,1354.69c0-4.11-.07-7.63-.29-10.87h5.54l.22,6.84h.29c1.58-4.68,5.4-7.64,9.65-7.64a7,7,0,0,1,1.8.22v6a9.21,9.21,0,0,0-2.16-.22c-4.47,0-7.64,3.38-8.5,8.14a18.19,18.19,0,0,0-.29,2.95v18.58h-6.26Z"/><path class="cls-2" d="M3925.21,1327.54h6.33v21.75h.15a11.73,11.73,0,0,1,4.53-4.47,13.05,13.05,0,0,1,6.48-1.8c4.68,0,12.17,2.88,12.17,14.91v20.74h-6.33v-20c0-5.62-2.09-10.37-8.07-10.37a9.12,9.12,0,0,0-8.5,6.34,7.65,7.65,0,0,0-.43,3v21h-6.33Z"/><path class="cls-2" d="M3968.69,1362.39c.15,8.57,5.62,12.1,12,12.1a22.84,22.84,0,0,0,9.64-1.8l1.09,4.54a28.24,28.24,0,0,1-11.6,2.16c-10.73,0-17.14-7.06-17.14-17.57s6.2-18.8,16.35-18.8c11.38,0,14.4,10,14.4,16.42a24.32,24.32,0,0,1-.21,3Zm18.58-4.53c.07-4-1.65-10.3-8.78-10.3-6.41,0-9.22,5.9-9.72,10.3Z"/><path class="cls-2" d="M4008.87,1333.81v10h9.07v4.82h-9.07v18.79c0,4.32,1.22,6.77,4.75,6.77a13.89,13.89,0,0,0,3.67-.43l.29,4.75a15.36,15.36,0,0,1-5.62.87,8.75,8.75,0,0,1-6.83-2.67c-1.81-1.87-2.45-5-2.45-9.07v-19h-5.4v-4.82h5.4v-8.36Z"/><path class="cls-2" d="M4059.63,1378.67l-.5-4.4h-.22a13,13,0,0,1-10.66,5.19c-7.05,0-10.66-5-10.66-10,0-8.42,7.49-13,21-13v-.72c0-2.88-.79-8.07-7.92-8.07a17.35,17.35,0,0,0-9.08,2.6l-1.43-4.18a21.62,21.62,0,0,1,11.44-3.1c10.66,0,13.25,7.28,13.25,14.26v13a49.33,49.33,0,0,0,.58,8.36Zm-.94-17.79c-6.91-.14-14.76,1.08-14.76,7.85,0,4.1,2.74,6,6,6a8.67,8.67,0,0,0,8.42-5.83,6.52,6.52,0,0,0,.36-2Z"/><path class="cls-2" d="M4094.33,1378.67l-.5-4.4h-.22a13,13,0,0,1-10.65,5.19c-7.06,0-10.66-5-10.66-10,0-8.42,7.49-13,20.95-13v-.72c0-2.88-.79-8.07-7.92-8.07a17.31,17.31,0,0,0-9.07,2.6l-1.44-4.18a21.66,21.66,0,0,1,11.45-3.1c10.66,0,13.25,7.28,13.25,14.26v13a49.4,49.4,0,0,0,.57,8.36Zm-.93-17.79c-6.92-.14-14.76,1.08-14.76,7.85,0,4.1,2.73,6,6,6A8.68,8.68,0,0,0,4093,1369a6.83,6.83,0,0,0,.36-2Z"/><path class="cls-2" d="M4109.74,1353.25c0-3.6-.07-6.55-.29-9.43h5.62l.36,5.76h.14a12.81,12.81,0,0,1,11.52-6.56c4.83,0,12.31,2.88,12.31,14.84v20.81h-6.33v-20.09c0-5.62-2.09-10.3-8.07-10.3a9.32,9.32,0,0,0-8.93,9.43v21h-6.33Z"/><path class="cls-2" d="M4149.7,1327.54H4156v21.75h.14a11.8,11.8,0,0,1,4.53-4.47,13.09,13.09,0,0,1,6.49-1.8c4.68,0,12.17,2.88,12.17,14.91v20.74H4173v-20c0-5.62-2.09-10.37-8.07-10.37a9.1,9.1,0,0,0-8.49,6.34,7.65,7.65,0,0,0-.43,3v21h-6.34Z"/><path class="cls-2" d="M4221.2,1361c0,12.89-8.93,18.51-17.36,18.51-9.43,0-16.7-6.91-16.7-17.93,0-11.67,7.63-18.51,17.28-18.51C4214.43,1343,4221.2,1350.3,4221.2,1361Zm-27.65.36c0,7.64,4.39,13.4,10.58,13.4s10.58-5.69,10.58-13.54c0-5.91-2.95-13.39-10.44-13.39S4193.55,1354.69,4193.55,1361.31Z"/><path class="cls-2" d="M4258.35,1369.16c0,3.6.07,6.77.29,9.51H4253l-.36-5.69h-.14a13.12,13.12,0,0,1-11.53,6.48c-5.47,0-12-3-12-15.27v-20.37h6.34v19.29c0,6.63,2,11.09,7.77,11.09a9.18,9.18,0,0,0,8.36-5.76,9.48,9.48,0,0,0,.57-3.24v-21.38h6.34Z"/><path class="cls-2" d="M4299,1327.54v42.13c0,3.09.07,6.62.28,9h-5.69l-.28-6.05h-.15c-1.94,3.89-6.19,6.84-11.88,6.84-8.42,0-14.9-7.13-14.9-17.71-.08-11.6,7.12-18.73,15.62-18.73,5.33,0,8.93,2.52,10.51,5.33h.15v-20.81Zm-6.34,30.46a11,11,0,0,0-.29-2.66,9.32,9.32,0,0,0-9.14-7.35c-6.56,0-10.44,5.76-10.44,13.47,0,7,3.45,12.89,10.29,12.89a9.53,9.53,0,0,0,9.29-7.56,10.87,10.87,0,0,0,.29-2.74Z"/><path class="cls-2" d="M4313,1362.39c.15,8.57,5.62,12.1,12,12.1a22.84,22.84,0,0,0,9.64-1.8l1.08,4.54a28.15,28.15,0,0,1-11.59,2.16c-10.73,0-17.14-7.06-17.14-17.57s6.2-18.8,16.35-18.8c11.38,0,14.4,10,14.4,16.42a22,22,0,0,1-.22,3Zm18.58-4.53c.07-4-1.66-10.3-8.78-10.3-6.41,0-9.22,5.9-9.73,10.3Z"/><path class="cls-2" d="M4345.54,1353.25c0-3.6-.08-6.55-.29-9.43h5.62l.35,5.76h.15a12.81,12.81,0,0,1,11.52-6.56c4.82,0,12.31,2.88,12.31,14.84v20.81h-6.33v-20.09c0-5.62-2.09-10.3-8.07-10.3a9,9,0,0,0-8.5,6.48,9.31,9.31,0,0,0-.43,3v21h-6.33Z"/><path class="cls-2" d="M3772,1430.22l6.84,19.58a90.37,90.37,0,0,1,2.81,8.93h.22c.79-2.88,1.8-5.76,2.95-8.93l6.77-19.58h6.62l-13.68,34.85h-6.05l-13.25-34.85Z"/><path class="cls-2" d="M3823.18,1465.07l-.5-4.4h-.22a13,13,0,0,1-10.65,5.19c-7.06,0-10.66-5-10.66-10,0-8.42,7.49-13,20.95-13v-.72c0-2.88-.79-8.07-7.92-8.07a17.31,17.31,0,0,0-9.07,2.6l-1.44-4.18a21.66,21.66,0,0,1,11.45-3.1c10.66,0,13.25,7.28,13.25,14.26v13a49.4,49.4,0,0,0,.57,8.36Zm-.93-17.79c-6.92-.14-14.76,1.08-14.76,7.85,0,4.11,2.73,6,6,6a8.68,8.68,0,0,0,8.43-5.83,6.83,6.83,0,0,0,.36-2Z"/><path class="cls-2" d="M3838.59,1439.65c0-3.6-.07-6.55-.29-9.43h5.62l.36,5.76h.14a12.83,12.83,0,0,1,11.52-6.56c4.83,0,12.32,2.88,12.32,14.84v20.81h-6.34V1445c0-5.62-2.09-10.3-8.06-10.3a9.28,9.28,0,0,0-8.93,9.43v21h-6.34Z"/><path class="cls-2" d="M3923.91,1413.94v42.13c0,3.09.07,6.62.29,9h-5.69l-.29-6h-.14c-1.95,3.89-6.19,6.84-11.88,6.84-8.43,0-14.91-7.13-14.91-17.71-.07-11.6,7.13-18.73,15.63-18.73,5.33,0,8.93,2.52,10.51,5.33h.14v-20.81Zm-6.34,30.46a11.46,11.46,0,0,0-.28-2.66,9.34,9.34,0,0,0-9.15-7.35c-6.55,0-10.44,5.76-10.44,13.47,0,7.05,3.46,12.89,10.3,12.89a9.53,9.53,0,0,0,9.29-7.56,11.36,11.36,0,0,0,.28-2.74Z"/><path class="cls-2" d="M3938,1448.79c.14,8.57,5.61,12.1,12,12.1a22.89,22.89,0,0,0,9.65-1.8l1.08,4.54a28.19,28.19,0,0,1-11.59,2.16c-10.73,0-17.14-7.06-17.14-17.57s6.19-18.8,16.35-18.8c11.37,0,14.4,10,14.4,16.42a23.89,23.89,0,0,1-.22,3Zm18.58-4.53c.07-4-1.66-10.3-8.79-10.3-6.41,0-9.22,5.91-9.72,10.3Z"/><path class="cls-2" d="M3984.89,1458.59a16.62,16.62,0,0,0,8.35,2.52c4.61,0,6.77-2.31,6.77-5.19s-1.8-4.68-6.48-6.41c-6.26-2.23-9.22-5.68-9.22-9.86,0-5.62,4.54-10.23,12-10.23a17.44,17.44,0,0,1,8.57,2.16l-1.59,4.61a13.55,13.55,0,0,0-7.12-2c-3.75,0-5.84,2.16-5.84,4.75,0,2.88,2.09,4.18,6.63,5.9,6.05,2.31,9.14,5.33,9.14,10.52,0,6.12-4.75,10.44-13,10.44a19.83,19.83,0,0,1-9.79-2.38Z"/><path class="cls-2" d="M4021.9,1420.21v10H4031V1435h-9.07v18.79c0,4.32,1.22,6.77,4.75,6.77a13.89,13.89,0,0,0,3.67-.43l.29,4.75a15.34,15.34,0,0,1-5.61.87,8.8,8.8,0,0,1-6.85-2.67c-1.8-1.87-2.44-5-2.44-9.07v-19h-5.4v-4.82h5.4v-8.36Z"/><path class="cls-2" d="M4067.26,1455.56c0,3.6.07,6.77.29,9.51h-5.62l-.36-5.69h-.14a13.12,13.12,0,0,1-11.52,6.48c-5.48,0-12-3-12-15.27v-20.37h6.34v19.29c0,6.63,2,11.09,7.78,11.09a8.89,8.89,0,0,0,8.92-9v-21.38h6.34Z"/><path class="cls-2" d="M4107.87,1413.94v42.13c0,3.09.07,6.62.29,9h-5.69l-.29-6H4102c-1.95,3.89-6.2,6.84-11.89,6.84-8.42,0-14.9-7.13-14.9-17.71-.07-11.6,7.13-18.73,15.63-18.73,5.32,0,8.92,2.52,10.51,5.33h.14v-20.81Zm-6.34,30.46a11,11,0,0,0-.29-2.66,9.32,9.32,0,0,0-9.14-7.35c-6.55,0-10.44,5.76-10.44,13.47,0,7.05,3.45,12.89,10.3,12.89a9.52,9.52,0,0,0,9.28-7.56,10.87,10.87,0,0,0,.29-2.74Z"/><path class="cls-2" d="M4121.91,1448.79c.14,8.57,5.61,12.1,11.95,12.1a22.93,22.93,0,0,0,9.65-1.8l1.08,4.54a28.21,28.21,0,0,1-11.6,2.16c-10.72,0-17.13-7.06-17.13-17.57s6.19-18.8,16.34-18.8c11.38,0,14.4,10,14.4,16.42a24.32,24.32,0,0,1-.21,3Zm18.57-4.53c.07-4-1.65-10.3-8.78-10.3-6.41,0-9.22,5.91-9.72,10.3Z"/><path class="cls-2" d="M4154.45,1439.65c0-3.6-.07-6.55-.29-9.43h5.62l.36,5.76h.14a12.83,12.83,0,0,1,11.52-6.56c4.83,0,12.32,2.88,12.32,14.84v20.81h-6.34V1445c0-5.62-2.09-10.3-8.07-10.3a9.28,9.28,0,0,0-8.92,9.43v21h-6.34Z"/><path class="cls-2" d="M4201.75,1420.21v10h9.08V1435h-9.08v18.79c0,4.32,1.23,6.77,4.76,6.77a14,14,0,0,0,3.67-.43l.29,4.75a15.4,15.4,0,0,1-5.62.87,8.78,8.78,0,0,1-6.84-2.67c-1.8-1.87-2.45-5-2.45-9.07v-19h-5.4v-4.82h5.4v-8.36Z"/><path class="cls-2" d="M5212.25,1222.83V1251h27.12v7.2h-27.12v28.44h-7.68v-28.44h-27.12V1251h27.12v-28.2Z"/><path class="cls-2" d="M5297.93,1218.51h-.24l-13.56,7.32-2-8,17-9.12h9v78h-10.2Z"/><path class="cls-2" d="M4977.05,1376.67l-15.84-48.54H4968l7.56,23.91c2.09,6.55,3.89,12.46,5.18,18.15h.15c1.36-5.62,3.38-11.74,5.54-18.08l8.21-24h6.7L4984,1376.67Z"/><path class="cls-2" d="M5035.52,1359c0,12.89-8.93,18.51-17.36,18.51-9.43,0-16.7-6.91-16.7-17.93,0-11.67,7.63-18.51,17.28-18.51C5028.75,1341,5035.52,1348.3,5035.52,1359Zm-27.65.36c0,7.64,4.39,13.4,10.58,13.4S5029,1367,5029,1359.17c0-5.91-3-13.39-10.45-13.39S5007.87,1352.69,5007.87,1359.31Z"/><path class="cls-2" d="M5075,1359c0,12.89-8.92,18.51-17.35,18.51-9.43,0-16.7-6.91-16.7-17.93,0-11.67,7.63-18.51,17.28-18.51C5068.28,1341,5075,1348.3,5075,1359Zm-27.65.36c0,7.64,4.4,13.4,10.59,13.4s10.58-5.69,10.58-13.54c0-5.91-3-13.39-10.44-13.39S5047.39,1352.69,5047.39,1359.31Z"/><path class="cls-2" d="M5083,1352.69c0-4.11-.07-7.63-.29-10.87h5.55l.22,6.84h.28c1.59-4.68,5.4-7.64,9.65-7.64a7,7,0,0,1,1.8.22v6a9.15,9.15,0,0,0-2.16-.22c-4.46,0-7.63,3.38-8.49,8.14a17.13,17.13,0,0,0-.29,2.95v18.58H5083Z"/><path class="cls-2" d="M5151.94,1325.54v42.13c0,3.09.07,6.62.29,9h-5.69l-.29-6.05h-.14c-1.95,3.89-6.2,6.84-11.89,6.84-8.42,0-14.9-7.13-14.9-17.71-.07-11.6,7.13-18.73,15.63-18.73,5.32,0,8.92,2.52,10.51,5.33h.14v-20.81ZM5145.6,1356a11,11,0,0,0-.29-2.66,9.31,9.31,0,0,0-9.14-7.35c-6.55,0-10.44,5.76-10.44,13.47,0,7,3.45,12.89,10.3,12.89a9.52,9.52,0,0,0,9.28-7.56,10.87,10.87,0,0,0,.29-2.74Z"/><path class="cls-2" d="M5166,1360.39c.14,8.57,5.61,12.1,12,12.1a22.89,22.89,0,0,0,9.65-1.8l1.08,4.54a28.21,28.21,0,0,1-11.6,2.16c-10.72,0-17.13-7.06-17.13-17.57s6.19-18.8,16.34-18.8c11.38,0,14.4,10,14.4,16.42a24.32,24.32,0,0,1-.21,3Zm18.57-4.53c.08-4-1.65-10.3-8.78-10.3-6.41,0-9.22,5.9-9.72,10.3Z"/><path class="cls-2" d="M5212.92,1370.19a16.62,16.62,0,0,0,8.35,2.52c4.61,0,6.77-2.31,6.77-5.19s-1.8-4.68-6.48-6.41c-6.27-2.23-9.22-5.69-9.22-9.86,0-5.62,4.54-10.23,12-10.23a17.44,17.44,0,0,1,8.57,2.16l-1.59,4.61a13.62,13.62,0,0,0-7.13-2c-3.74,0-5.83,2.16-5.83,4.75,0,2.88,2.09,4.18,6.63,5.9,6,2.31,9.14,5.33,9.14,10.52,0,6.12-4.75,10.44-13,10.44a19.9,19.9,0,0,1-9.8-2.38Z"/><path class="cls-2" d="M5249.93,1331.81v10H5259v4.82h-9.07v18.79c0,4.32,1.22,6.77,4.75,6.77a13.89,13.89,0,0,0,3.67-.43l.29,4.75a15.36,15.36,0,0,1-5.62.87,8.78,8.78,0,0,1-6.84-2.67c-1.8-1.87-2.45-5-2.45-9.07v-19h-5.4v-4.82h5.4v-8.36Z"/><path class="cls-2" d="M5295.29,1367.16c0,3.6.07,6.77.29,9.51H5290l-.36-5.69h-.14a13.12,13.12,0,0,1-11.53,6.48c-5.47,0-12-3-12-15.27v-20.37h6.34v19.29c0,6.63,2,11.09,7.77,11.09a8.89,8.89,0,0,0,8.93-9v-21.38h6.34Z"/><path class="cls-2" d="M5335.9,1325.54v42.13c0,3.09.07,6.62.28,9h-5.68l-.29-6.05h-.15c-1.94,3.89-6.19,6.84-11.88,6.84-8.42,0-14.9-7.13-14.9-17.71-.07-11.6,7.13-18.73,15.62-18.73,5.33,0,8.93,2.52,10.52,5.33h.14v-20.81Zm-6.34,30.46a11,11,0,0,0-.29-2.66,9.31,9.31,0,0,0-9.14-7.35c-6.56,0-10.44,5.76-10.44,13.47,0,7,3.45,12.89,10.29,12.89a9.53,9.53,0,0,0,9.29-7.56,10.87,10.87,0,0,0,.29-2.74Z"/><path class="cls-2" d="M5349.93,1360.39c.15,8.57,5.62,12.1,12,12.1a22.93,22.93,0,0,0,9.65-1.8l1.08,4.54a28.24,28.24,0,0,1-11.6,2.16c-10.73,0-17.14-7.06-17.14-17.57s6.2-18.8,16.35-18.8c11.38,0,14.4,10,14.4,16.42a24.32,24.32,0,0,1-.21,3Zm18.58-4.53c.07-4-1.66-10.3-8.78-10.3-6.41,0-9.22,5.9-9.72,10.3Z"/><path class="cls-2" d="M5382.48,1351.25c0-3.6-.08-6.55-.29-9.43h5.61l.36,5.76h.15a12.81,12.81,0,0,1,11.52-6.56c4.82,0,12.31,2.88,12.31,14.84v20.81h-6.33v-20.09c0-5.62-2.09-10.3-8.07-10.3a9,9,0,0,0-8.5,6.48,9.31,9.31,0,0,0-.43,3v21h-6.33Z"/><path class="cls-2" d="M5429.78,1331.81v10h9.07v4.82h-9.07v18.79c0,4.32,1.22,6.77,4.75,6.77a14,14,0,0,0,3.68-.43l.28,4.75a15.3,15.3,0,0,1-5.61.87,8.76,8.76,0,0,1-6.84-2.67c-1.8-1.87-2.45-5-2.45-9.07v-19h-5.4v-4.82h5.4v-8.36Z"/><path class="cls-2" d="M4973.23,1418.42a3.93,3.93,0,0,1-7.85,0,3.87,3.87,0,0,1,4-4A3.76,3.76,0,0,1,4973.23,1418.42Zm-7,44.65v-34.85h6.33v34.85Z"/><path class="cls-2" d="M4983,1437.65c0-3.6-.07-6.55-.28-9.43h5.61l.36,5.76h.15a12.81,12.81,0,0,1,11.52-6.56c4.82,0,12.31,2.88,12.31,14.84v20.81h-6.34V1443c0-5.62-2.08-10.3-8.06-10.3a9.28,9.28,0,0,0-8.93,9.43v21H4983Z"/><path class="cls-2" d="M5068.27,1428.22c-.14,2.52-.28,5.32-.28,9.57V1458c0,8-1.59,12.89-5,15.91s-8.28,4.18-12.68,4.18c-4.17,0-8.78-1-11.59-2.88l1.59-4.83a19.62,19.62,0,0,0,10.22,2.74c6.48,0,11.23-3.39,11.23-12.17v-3.89h-.14c-1.94,3.24-5.69,5.83-11.09,5.83-8.64,0-14.83-7.34-14.83-17,0-11.81,7.7-18.51,15.69-18.51,6.05,0,9.37,3.17,10.88,6h.14l.29-5.25Zm-6.55,13.75a9,9,0,0,0-.36-2.88,9.13,9.13,0,0,0-8.86-6.7c-6,0-10.36,5.11-10.36,13.18,0,6.84,3.45,12.53,10.29,12.53a9.27,9.27,0,0,0,8.79-6.48,11.06,11.06,0,0,0,.5-3.39Z"/><path class="cls-2" d="M5082,1446.79c.15,8.57,5.62,12.1,12,12.1a22.93,22.93,0,0,0,9.65-1.8l1.08,4.54a28.24,28.24,0,0,1-11.6,2.16c-10.73,0-17.14-7.06-17.14-17.57s6.2-18.8,16.35-18.8c11.38,0,14.4,10,14.4,16.42a24.32,24.32,0,0,1-.21,3Zm18.58-4.53c.07-4-1.66-10.3-8.78-10.3-6.41,0-9.22,5.91-9.72,10.3Z"/><path class="cls-2" d="M5117,1428.22l6.85,19.58a90.2,90.2,0,0,1,2.8,8.93h.22c.79-2.88,1.8-5.76,2.95-8.93l6.77-19.58h6.62l-13.68,34.85h-6.05l-13.24-34.85Z"/><path class="cls-2" d="M5168.21,1463.07l-.51-4.4h-.21a13,13,0,0,1-10.66,5.19c-7.06,0-10.66-5-10.66-10,0-8.42,7.49-13,21-13v-.72c0-2.88-.8-8.07-7.92-8.07a17.35,17.35,0,0,0-9.08,2.6l-1.44-4.18a21.66,21.66,0,0,1,11.45-3.1c10.66,0,13.25,7.28,13.25,14.26v13a49.33,49.33,0,0,0,.58,8.36Zm-.94-17.79c-6.91-.14-14.76,1.08-14.76,7.85,0,4.11,2.74,6,6,6a8.67,8.67,0,0,0,8.42-5.83,6.52,6.52,0,0,0,.36-2Z"/><path class="cls-2" d="M5183.61,1437.65c0-3.6-.07-6.55-.29-9.43h5.62l.36,5.76h.15a12.81,12.81,0,0,1,11.52-6.56c4.82,0,12.31,2.88,12.31,14.84v20.81h-6.34V1443c0-5.62-2.09-10.3-8.06-10.3a9.28,9.28,0,0,0-8.93,9.43v21h-6.34Z"/><path class="cls-2" d="M5253.6,1428.22c-.14,2.52-.29,5.32-.29,9.57V1458c0,8-1.58,12.89-5,15.91s-8.28,4.18-12.67,4.18c-4.18,0-8.79-1-11.59-2.88l1.58-4.83a19.62,19.62,0,0,0,10.22,2.74c6.49,0,11.24-3.39,11.24-12.17v-3.89H5247c-1.94,3.24-5.68,5.83-11.09,5.83-8.64,0-14.83-7.34-14.83-17,0-11.81,7.71-18.51,15.7-18.51,6.05,0,9.36,3.17,10.87,6h.15l.28-5.25Zm-6.55,13.75a9.24,9.24,0,0,0-.36-2.88,9.14,9.14,0,0,0-8.86-6.7c-6.05,0-10.37,5.11-10.37,13.18,0,6.84,3.46,12.53,10.3,12.53a9.26,9.26,0,0,0,8.78-6.48,11.07,11.07,0,0,0,.51-3.39Z"/><path class="cls-2" d="M5267.35,1446.79c.14,8.57,5.61,12.1,11.95,12.1a22.89,22.89,0,0,0,9.65-1.8l1.08,4.54a28.19,28.19,0,0,1-11.59,2.16c-10.73,0-17.14-7.06-17.14-17.57s6.19-18.8,16.34-18.8c11.38,0,14.41,10,14.41,16.42a23.89,23.89,0,0,1-.22,3Zm18.58-4.53c.07-4-1.66-10.3-8.79-10.3-6.41,0-9.22,5.91-9.72,10.3Z"/><path class="cls-2" d="M5299.89,1437.65c0-3.6-.07-6.55-.29-9.43h5.62l.36,5.76h.14a12.83,12.83,0,0,1,11.52-6.56c4.83,0,12.32,2.88,12.32,14.84v20.81h-6.34V1443c0-5.62-2.09-10.3-8.06-10.3a9.28,9.28,0,0,0-8.93,9.43v21h-6.34Z"/><path class="cls-2" d="M5346.91,1418.42a3.93,3.93,0,0,1-7.85,0,3.86,3.86,0,0,1,4-4A3.77,3.77,0,0,1,5346.91,1418.42Zm-7.06,44.65v-34.85h6.34v34.85Z"/><path class="cls-2" d="M5355.83,1456.59a16.7,16.7,0,0,0,8.36,2.52c4.6,0,6.77-2.31,6.77-5.19s-1.81-4.68-6.49-6.41c-6.26-2.23-9.21-5.68-9.21-9.86,0-5.62,4.53-10.23,12-10.23a17.41,17.41,0,0,1,8.57,2.16l-1.58,4.61a13.62,13.62,0,0,0-7.13-2c-3.75,0-5.83,2.16-5.83,4.75,0,2.88,2.08,4.18,6.62,5.9,6,2.31,9.15,5.33,9.15,10.52,0,6.12-4.76,10.44-13,10.44a19.89,19.89,0,0,1-9.79-2.38Z"/><path class="cls-2" d="M5408.11,1418.21v10h9.07V1433h-9.07v18.79c0,4.32,1.22,6.77,4.75,6.77a14,14,0,0,0,3.67-.43l.29,4.75a15.4,15.4,0,0,1-5.62.87,8.78,8.78,0,0,1-6.84-2.67c-1.8-1.87-2.45-5-2.45-9.07v-19h-5.4v-4.82h5.4v-8.36Z"/><path class="cls-2" d="M5427.4,1446.79c.14,8.57,5.62,12.1,12,12.1a22.86,22.86,0,0,0,9.65-1.8l1.08,4.54a28.19,28.19,0,0,1-11.59,2.16c-10.73,0-17.14-7.06-17.14-17.57s6.19-18.8,16.35-18.8c11.37,0,14.4,10,14.4,16.42a22,22,0,0,1-.22,3Zm18.58-4.53c.07-4-1.66-10.3-8.79-10.3-6.4,0-9.21,5.91-9.72,10.3Z"/><path class="cls-2" d="M5474.34,1456.59a16.7,16.7,0,0,0,8.36,2.52c4.6,0,6.76-2.31,6.76-5.19s-1.8-4.68-6.48-6.41c-6.26-2.23-9.21-5.68-9.21-9.86,0-5.62,4.53-10.23,12-10.23a17.41,17.41,0,0,1,8.57,2.16l-1.58,4.61a13.62,13.62,0,0,0-7.13-2c-3.75,0-5.83,2.16-5.83,4.75,0,2.88,2.08,4.18,6.62,5.9,6.05,2.31,9.15,5.33,9.15,10.52,0,6.12-4.76,10.44-13,10.44a19.89,19.89,0,0,1-9.79-2.38Z"/><path class="cls-2" d="M5511.35,1418.21v10h9.07V1433h-9.07v18.79c0,4.32,1.23,6.77,4.75,6.77a14,14,0,0,0,3.68-.43l.28,4.75a15.3,15.3,0,0,1-5.61.87,8.78,8.78,0,0,1-6.84-2.67c-1.8-1.87-2.45-5-2.45-9.07v-19h-5.4v-4.82h5.4v-8.36Z"/><path class="cls-2" d="M5530.65,1446.79c.14,8.57,5.61,12.1,12,12.1a22.89,22.89,0,0,0,9.65-1.8l1.08,4.54a28.19,28.19,0,0,1-11.59,2.16c-10.73,0-17.14-7.06-17.14-17.57s6.19-18.8,16.34-18.8c11.38,0,14.41,10,14.41,16.42a23.89,23.89,0,0,1-.22,3Zm18.57-4.53c.08-4-1.65-10.3-8.78-10.3-6.41,0-9.22,5.91-9.72,10.3Z"/><path class="cls-2" d="M5569.46,1444.2h.14c.86-1.22,2.09-2.73,3.1-4l10.22-12h7.63l-13.46,14.33,15.34,20.52h-7.71l-12-16.71-3.24,3.6v13.11h-6.27v-51.13h6.27Z"/><path class="cls-2" d="M5600.49,1446.79c.14,8.57,5.61,12.1,11.95,12.1a22.89,22.89,0,0,0,9.65-1.8l1.08,4.54a28.19,28.19,0,0,1-11.59,2.16c-10.73,0-17.14-7.06-17.14-17.57s6.19-18.8,16.34-18.8c11.38,0,14.4,10,14.4,16.42a24.32,24.32,0,0,1-.21,3Zm18.57-4.53c.08-4-1.65-10.3-8.78-10.3-6.41,0-9.22,5.91-9.72,10.3Z"/><path class="cls-2" d="M5633,1437.65c0-3.6-.07-6.55-.29-9.43h5.62l.36,5.76h.14a12.83,12.83,0,0,1,11.52-6.56c4.83,0,12.32,2.88,12.32,14.84v20.81h-6.34V1443c0-5.62-2.09-10.3-8.07-10.3a9.28,9.28,0,0,0-8.92,9.43v21H5633Z"/><polygon class="cls-4" points="561.41 803.88 540.51 793.1 519.78 804.21 523.58 781 506.61 764.72 529.85 761.15 540.09 739.98 550.67 760.99 573.97 764.19 557.25 780.74 561.41 803.88"/><line class="cls-15" x1="2081" y1="115.56" x2="3354.33" y2="1000.9"/><line class="cls-15" x1="2078.33" y1="1002.23" x2="3354.33" y2="115.56"/></svg>