<?xml version="1.0" encoding="utf-8"?>
<!-- Generator: Adobe Illustrator 24.2.3, SVG Export Plug-In . SVG Version: 6.00 Build 0)  -->
<svg version="1.1" id="Layer_1" xmlns="http://www.w3.org/2000/svg" xmlns:xlink="http://www.w3.org/1999/xlink" x="0px" y="0px"
	 viewBox="0 0 5952.76 1508" style="enable-background:new 0 0 5952.76 1508;" xml:space="preserve">
<style type="text/css">
	.st0{fill:#00AEEF;stroke:#000000;stroke-miterlimit:10;}
	.st1{font-family:'MyriadPro-Regular';}
	.st2{font-size:48px;}
	.st3{fill:#754C29;}
	.st4{fill:#FFDE17;stroke:#000000;stroke-miterlimit:10;}
	.st5{fill:none;stroke:#000000;stroke-width:9;stroke-miterlimit:10;}
	.st6{fill:#FFFFFF;stroke:#000000;stroke-width:9;stroke-miterlimit:10;}
	.st7{fill:#00A651;}
	.st8{fill:#00A651;stroke:#000000;stroke-miterlimit:10;}
	.st9{fill:none;stroke:#ED1C24;stroke-miterlimit:10;}
	.st10{fill:#ED1C24;stroke:#ED1C24;stroke-miterlimit:10;}
	.st11{fill:none;stroke:#000000;stroke-width:6;stroke-miterlimit:10;}
	.st12{fill:none;stroke:#000000;stroke-width:3;stroke-miterlimit:10;}
	.st13{font-size:120px;}
	.st14{font-size:72px;}
</style>
<circle class="st0" cx="181.08" cy="415.04" r="54.29"/>
<circle class="st0" cx="1983.05" cy="896.17" r="54.29"/>
<circle class="st0" cx="523.58" cy="414.92" r="54.29"/>
<text transform="matrix(1 0 0 1 118.1379 74.4989)" class="st1 st2">Student</text>
<text transform="matrix(1 0 0 1 119.6281 329.6458)" class="st1 st2">Lector</text>
<text transform="matrix(1 0 0 1 406.4735 329.7867)" class="st1 st2">Aanhouding</text>
<text transform="matrix(1 0 0 1 67.7348 669.7161)" class="st1 st2">Gevangenis</text>
<text transform="matrix(1 0 0 1 409.3474 632.494)"><tspan x="0" y="0" class="st1 st2">Student in de </tspan><tspan x="0" y="57.6" class="st1 st2">gevangenis</tspan></text>
<text transform="matrix(1 0 0 1 109.6735 993.8029)" class="st1 st2">Muur</text>
<rect x="122.4" y="712.41" class="st3" width="113.78" height="111.11"/>
<text transform="matrix(1 0 0 1 383.5114 949.7912)"><tspan x="0" y="0" class="st1 st2">Verstopte student </tspan><tspan x="0" y="57.6" class="st1 st2">achter de muur</tspan></text>
<polygon class="st4" points="231.66,212.35 193.51,192.67 155.68,212.94 162.61,170.59 131.64,140.87 174.06,134.37 192.75,95.73 
	212.05,134.07 254.57,139.9 224.07,170.1 "/>
<polygon class="st4" points="544.7,446.71 523.8,435.93 503.07,447.04 506.87,423.83 489.9,407.55 513.14,403.98 523.38,382.81 
	533.96,403.82 557.25,407.02 540.54,423.56 "/>
<polygon class="st4" points="494.26,1123.12 473.36,1112.34 452.63,1123.45 456.42,1100.24 439.45,1083.96 462.7,1080.39 
	472.94,1059.22 483.51,1080.23 506.81,1083.43 490.1,1099.98 "/>
<polygon class="st4" points="1609.46,191.97 1588.56,181.19 1567.83,192.29 1571.62,169.09 1554.65,152.8 1577.9,149.24 
	1588.14,128.07 1598.71,149.08 1622.01,152.27 1605.3,168.82 "/>
<rect x="807.67" y="115.56" class="st5" width="5415.76" height="885.33"/>
<rect x="2081" y="115.56" class="st5" width="1273.33" height="885.33"/>
<rect x="3354.33" y="112.91" class="st5" width="1273.33" height="885.33"/>
<rect x="4625.67" y="114.9" class="st5" width="1273.33" height="885.33"/>
<rect x="806.67" y="10.9" class="st6" width="107.67" height="81"/>
<rect x="948.67" y="10.9" class="st6" width="107.67" height="81"/>
<rect x="1080.67" y="10.9" class="st6" width="107.67" height="81"/>
<rect x="1214.67" y="10.9" class="st6" width="107.67" height="81"/>
<rect x="1348.67" y="10.9" class="st6" width="107.67" height="81"/>
<rect x="1480.67" y="10.9" class="st6" width="107.67" height="81"/>
<rect x="1610.67" y="10.9" class="st6" width="107.67" height="81"/>
<rect x="1740.67" y="10.9" class="st6" width="107.67" height="81"/>
<rect x="1866.67" y="10.9" class="st6" width="107.67" height="81"/>
<rect x="1992.67" y="10.9" class="st6" width="107.67" height="81"/>
<rect x="2122.67" y="10.9" class="st6" width="107.67" height="81"/>
<rect x="2264.67" y="10.9" class="st6" width="107.67" height="81"/>
<rect x="2396.67" y="10.9" class="st6" width="107.67" height="81"/>
<rect x="2530.67" y="10.9" class="st6" width="107.67" height="81"/>
<rect x="2664.67" y="10.9" class="st6" width="107.67" height="81"/>
<rect x="2796.67" y="10.9" class="st6" width="107.67" height="81"/>
<rect x="2926.67" y="10.9" class="st6" width="107.67" height="81"/>
<rect x="3056.67" y="10.9" class="st6" width="107.67" height="81"/>
<rect x="3182.67" y="10.9" class="st6" width="107.67" height="81"/>
<rect x="3308.67" y="10.9" class="st6" width="107.67" height="81"/>
<rect x="3435.33" y="10.9" class="st6" width="107.67" height="81"/>
<rect x="3565.33" y="10.9" class="st6" width="107.67" height="81"/>
<rect x="3707.33" y="10.9" class="st6" width="107.67" height="81"/>
<rect x="3839.33" y="10.9" class="st6" width="107.67" height="81"/>
<rect x="3973.33" y="10.9" class="st6" width="107.67" height="81"/>
<rect x="4107.33" y="10.9" class="st6" width="107.67" height="81"/>
<rect x="4239.33" y="10.9" class="st6" width="107.67" height="81"/>
<rect x="4369.33" y="10.9" class="st6" width="107.67" height="81"/>
<rect x="4499.33" y="10.9" class="st6" width="107.67" height="81"/>
<rect x="4625.33" y="10.9" class="st6" width="107.67" height="81"/>
<rect x="4751.33" y="10.9" class="st6" width="107.67" height="81"/>
<rect x="4878" y="10.9" class="st6" width="107.67" height="81"/>
<rect x="5008" y="10.9" class="st6" width="107.67" height="81"/>
<rect x="5150" y="10.9" class="st6" width="107.67" height="81"/>
<rect x="5282" y="10.9" class="st6" width="107.67" height="81"/>
<rect x="5416" y="10.9" class="st6" width="107.67" height="81"/>
<rect x="5550" y="10.9" class="st6" width="107.67" height="81"/>
<rect x="5682" y="10.9" class="st6" width="107.67" height="81"/>
<rect x="5812" y="10.9" class="st6" width="107.67" height="81"/>
<rect x="5942" y="10.9" class="st6" width="107.67" height="81"/>
<rect x="6068" y="10.9" class="st6" width="107.67" height="81"/>
<rect x="6194" y="10.9" class="st6" width="107.67" height="81"/>
<rect x="806.67" y="1024.56" class="st6" width="107.67" height="81"/>
<rect x="948.67" y="1024.56" class="st6" width="107.67" height="81"/>
<rect x="1080.67" y="1024.56" class="st6" width="107.67" height="81"/>
<rect x="1214.67" y="1024.56" class="st6" width="107.67" height="81"/>
<rect x="1348.67" y="1024.56" class="st6" width="107.67" height="81"/>
<rect x="1480.67" y="1024.56" class="st6" width="107.67" height="81"/>
<rect x="1610.67" y="1024.56" class="st6" width="107.67" height="81"/>
<rect x="1740.67" y="1024.56" class="st6" width="107.67" height="81"/>
<rect x="1866.67" y="1024.56" class="st6" width="107.67" height="81"/>
<rect x="1992.67" y="1024.56" class="st6" width="107.67" height="81"/>
<rect x="2122.67" y="1024.56" class="st6" width="107.67" height="81"/>
<rect x="2264.67" y="1024.56" class="st6" width="107.67" height="81"/>
<rect x="2396.67" y="1024.56" class="st6" width="107.67" height="81"/>
<rect x="2530.67" y="1024.56" class="st6" width="107.67" height="81"/>
<rect x="2664.67" y="1024.56" class="st6" width="107.67" height="81"/>
<rect x="2796.67" y="1024.56" class="st6" width="107.67" height="81"/>
<rect x="2926.67" y="1024.56" class="st6" width="107.67" height="81"/>
<rect x="3056.67" y="1024.56" class="st6" width="107.67" height="81"/>
<rect x="3182.67" y="1024.56" class="st6" width="107.67" height="81"/>
<rect x="3308.67" y="1024.56" class="st6" width="107.67" height="81"/>
<rect x="3435.33" y="1024.56" class="st6" width="107.67" height="81"/>
<rect x="3565.33" y="1024.56" class="st6" width="107.67" height="81"/>
<rect x="3707.33" y="1024.56" class="st6" width="107.67" height="81"/>
<rect x="3839.33" y="1024.56" class="st6" width="107.67" height="81"/>
<rect x="3973.33" y="1024.56" class="st6" width="107.67" height="81"/>
<rect x="4107.33" y="1024.56" class="st6" width="107.67" height="81"/>
<rect x="4239.33" y="1024.56" class="st6" width="107.67" height="81"/>
<rect x="4369.33" y="1024.56" class="st6" width="107.67" height="81"/>
<rect x="4499.33" y="1024.56" class="st6" width="107.67" height="81"/>
<rect x="4625.33" y="1024.56" class="st6" width="107.67" height="81"/>
<rect x="4751.33" y="1024.56" class="st6" width="107.67" height="81"/>
<rect x="4878" y="1024.56" class="st6" width="107.67" height="81"/>
<rect x="5008" y="1024.56" class="st6" width="107.67" height="81"/>
<rect x="5150" y="1024.56" class="st6" width="107.67" height="81"/>
<rect x="5282" y="1024.56" class="st6" width="107.67" height="81"/>
<rect x="5416" y="1024.56" class="st6" width="107.67" height="81"/>
<rect x="5550" y="1024.56" class="st6" width="107.67" height="81"/>
<rect x="5682" y="1024.56" class="st6" width="107.67" height="81"/>
<rect x="5812" y="1024.56" class="st6" width="107.67" height="81"/>
<rect x="5942" y="1024.56" class="st6" width="107.67" height="81"/>
<rect x="6068" y="1024.56" class="st6" width="107.67" height="81"/>
<rect x="6194" y="1024.56" class="st6" width="107.67" height="81"/>
<rect x="149.35" y="1029.3" class="st7" width="30.54" height="136"/>
<rect x="883.79" y="487.58" class="st7" width="30.54" height="136"/>
<rect x="1157.79" y="602.58" class="st7" width="30.54" height="136"/>
<rect x="1411.35" y="756.07" class="st7" width="30.54" height="136"/>
<rect x="1411.35" y="518.9" class="st7" width="30.54" height="136"/>
<rect x="1672.35" y="578.01" class="st7" width="30.54" height="136"/>
<rect x="883.79" y="756.07" class="st7" width="30.54" height="136"/>
<rect x="1917.78" y="150.23" transform="matrix(-1.836970e-16 1 -1 -1.836970e-16 2151.2791 -1714.8158)" class="st7" width="30.54" height="136"/>
<rect x="1573.06" y="150.23" transform="matrix(-1.836970e-16 1 -1 -1.836970e-16 1806.5649 -1370.1017)" class="st7" width="30.54" height="136"/>
<rect x="1266.62" y="150.23" transform="matrix(-1.836970e-16 1 -1 -1.836970e-16 1500.1238 -1063.6605)" class="st8" width="30.54" height="136"/>
<rect x="1426.62" y="379.23" transform="matrix(-1.836970e-16 1 -1 -1.836970e-16 1889.1238 -994.6605)" class="st7" width="30.54" height="136"/>
<rect x="1157.79" y="379.23" transform="matrix(-1.836970e-16 1 -1 -1.836970e-16 1620.2955 -725.8323)" class="st7" width="30.54" height="136"/>
<rect x="1755.62" y="379.23" transform="matrix(-1.836970e-16 1 -1 -1.836970e-16 2218.1238 -1323.6605)" class="st7" width="30.54" height="136"/>
<rect x="511.88" y="1027.67" class="st7" width="30.54" height="136"/>
<line class="st9" x1="1945" y1="857.45" x2="1703.27" y2="599.32"/>
<line class="st9" x1="1962.35" y1="844.57" x2="1720.74" y2="462.77"/>
<line class="st10" x1="1944.67" y1="857.12" x2="1315.56" y2="120.79"/>
<line class="st9" x1="1945" y1="857.45" x2="1355.07" y2="120.38"/>
<line class="st9" x1="1945" y1="857.45" x2="1383.24" y2="120.69"/>
<line class="st9" x1="1963.02" y1="845.69" x2="1708.34" y2="462.79"/>
<line class="st9" x1="1963.02" y1="845.69" x2="1734.48" y2="462.76"/>
<line class="st9" x1="1963.02" y1="845.69" x2="1427.42" y2="120.97"/>
<circle class="st0" cx="3262.94" cy="896.17" r="54.29"/>
<polygon class="st4" points="2915.63,429.57 2891.81,417.29 2868.2,429.95 2872.52,403.51 2853.19,384.96 2879.67,380.9 
	2891.34,356.78 2903.38,380.71 2929.93,384.35 2910.89,403.2 "/>
<rect x="2163.68" y="487.58" class="st7" width="30.54" height="136"/>
<rect x="2437.68" y="602.58" class="st7" width="30.54" height="136"/>
<rect x="2691.24" y="756.07" class="st7" width="30.54" height="136"/>
<rect x="2691.24" y="518.9" class="st7" width="30.54" height="136"/>
<rect x="2952.24" y="578.01" class="st7" width="30.54" height="136"/>
<rect x="2163.68" y="756.07" class="st7" width="30.54" height="136"/>
<rect x="3197.67" y="150.23" transform="matrix(-1.836970e-16 1 -1 -1.836970e-16 3431.168 -2994.7046)" class="st7" width="30.54" height="136"/>
<rect x="2852.95" y="150.23" transform="matrix(-1.836970e-16 1 -1 -1.836970e-16 3086.4539 -2649.9905)" class="st7" width="30.54" height="136"/>
<rect x="2546.51" y="150.23" transform="matrix(-1.836970e-16 1 -1 -1.836970e-16 2780.0127 -2343.5493)" class="st7" width="30.54" height="136"/>
<rect x="2706.51" y="379.23" transform="matrix(-1.836970e-16 1 -1 -1.836970e-16 3169.0127 -2274.5493)" class="st7" width="30.54" height="136"/>
<rect x="2437.68" y="379.23" transform="matrix(-1.836970e-16 1 -1 -1.836970e-16 2900.1843 -2005.7212)" class="st7" width="30.54" height="136"/>
<rect x="3035.51" y="379.23" transform="matrix(-1.836970e-16 1 -1 -1.836970e-16 3498.0127 -2603.5493)" class="st7" width="30.54" height="136"/>
<line class="st9" x1="3224.89" y1="857.45" x2="2983.16" y2="599.32"/>
<line class="st9" x1="3242.24" y1="844.57" x2="3000.63" y2="462.77"/>
<line class="st10" x1="3224.56" y1="857.12" x2="2595.44" y2="120.79"/>
<line class="st9" x1="3224.89" y1="857.45" x2="2878.37" y2="424.5"/>
<line class="st9" x1="3224.89" y1="857.45" x2="2891.81" y2="417.29"/>
<line class="st9" x1="3242.91" y1="845.69" x2="2988.23" y2="462.79"/>
<line class="st9" x1="3242.91" y1="845.69" x2="3014.37" y2="462.76"/>
<line class="st9" x1="3242.91" y1="845.69" x2="2913.78" y2="400.34"/>
<rect x="3354.33" y="115.56" class="st5" width="1273.33" height="885.33"/>
<circle class="st0" cx="4167.04" cy="395.57" r="54.29"/>
<polygon class="st4" points="4188.96,429.57 4165.15,417.29 4141.53,429.95 4145.85,403.51 4126.52,384.96 4153,380.9 
	4164.67,356.78 4176.72,380.71 4203.26,384.35 4184.22,403.2 "/>
<rect x="3437.02" y="487.58" class="st7" width="30.54" height="136"/>
<rect x="3711.02" y="602.58" class="st7" width="30.54" height="136"/>
<rect x="3964.58" y="756.07" class="st7" width="30.54" height="136"/>
<rect x="3964.58" y="518.9" class="st7" width="30.54" height="136"/>
<rect x="4225.58" y="578.01" class="st7" width="30.54" height="136"/>
<rect x="3437.02" y="756.07" class="st7" width="30.54" height="136"/>
<rect x="4471" y="150.23" transform="matrix(-1.836970e-16 1 -1 -1.836970e-16 4704.5015 -4268.0381)" class="st7" width="30.54" height="136"/>
<rect x="4126.29" y="150.23" transform="matrix(-1.836970e-16 1 -1 -1.836970e-16 4359.7871 -3923.324)" class="st7" width="30.54" height="136"/>
<rect x="3819.84" y="150.23" transform="matrix(-1.836970e-16 1 -1 -1.836970e-16 4053.3459 -3616.8828)" class="st7" width="30.54" height="136"/>
<rect x="3979.84" y="379.23" transform="matrix(-1.836970e-16 1 -1 -1.836970e-16 4442.3457 -3547.8828)" class="st7" width="30.54" height="136"/>
<rect x="3711.02" y="379.23" transform="matrix(-1.836970e-16 1 -1 -1.836970e-16 4173.5176 -3279.0544)" class="st7" width="30.54" height="136"/>
<rect x="4308.84" y="379.23" transform="matrix(-1.836970e-16 1 -1 -1.836970e-16 4771.3457 -3876.8828)" class="st7" width="30.54" height="136"/>
<line class="st9" x1="4112.87" y1="392.06" x2="3593.49" y2="336.23"/>
<line class="st9" x1="4117.22" y1="370.9" x2="3593.49" y2="217.3"/>
<line class="st10" x1="4112.4" y1="392.04" x2="3593.49" y2="320.01"/>
<line class="st9" x1="4112.87" y1="392.06" x2="3593.49" y2="304.8"/>
<line class="st9" x1="4112.87" y1="392.06" x2="3593.49" y2="290.22"/>
<line class="st9" x1="4118.47" y1="371.29" x2="3593.49" y2="234.73"/>
<line class="st9" x1="4118.47" y1="371.29" x2="3593.49" y2="194.94"/>
<line class="st9" x1="4118.47" y1="371.29" x2="3593.49" y2="262.15"/>
<rect x="2078.33" y="116.89" class="st5" width="5415.76" height="885.33"/>
<rect x="4625" y="114.24" class="st5" width="1273.33" height="885.33"/>
<rect x="4625" y="116.89" class="st5" width="1273.33" height="885.33"/>
<circle class="st0" cx="4929.9" cy="327.83" r="54.29"/>
<rect x="4707.68" y="488.9" class="st7" width="30.54" height="136"/>
<rect x="4981.68" y="603.9" class="st7" width="30.54" height="136"/>
<rect x="5235.24" y="757.4" class="st7" width="30.54" height="136"/>
<rect x="5235.24" y="520.23" class="st7" width="30.54" height="136"/>
<rect x="5496.24" y="579.34" class="st7" width="30.54" height="136"/>
<rect x="4707.68" y="757.4" class="st7" width="30.54" height="136"/>
<rect x="5741.67" y="151.56" transform="matrix(-1.836970e-16 1 -1 -1.836970e-16 5976.4961 -5537.3765)" class="st7" width="30.54" height="136"/>
<rect x="5396.95" y="151.56" transform="matrix(-1.836970e-16 1 -1 -1.836970e-16 5631.7817 -5192.6626)" class="st7" width="30.54" height="136"/>
<rect x="5090.51" y="151.56" transform="matrix(-1.836970e-16 1 -1 -1.836970e-16 5325.3408 -4886.2212)" class="st7" width="30.54" height="136"/>
<rect x="5250.51" y="380.56" transform="matrix(-1.836970e-16 1 -1 -1.836970e-16 5714.3408 -4817.2212)" class="st7" width="30.54" height="136"/>
<rect x="4981.68" y="380.56" transform="matrix(-1.836970e-16 1 -1 -1.836970e-16 5445.5127 -4548.3931)" class="st7" width="30.54" height="136"/>
<rect x="5579.51" y="380.56" transform="matrix(-1.836970e-16 1 -1 -1.836970e-16 6043.3408 -5146.2212)" class="st7" width="30.54" height="136"/>
<line class="st9" x1="4983.79" y1="334.31" x2="5616.78" y2="431.96"/>
<line class="st9" x1="4978.28" y1="355.21" x2="5197.78" y2="433.29"/>
<line class="st10" x1="4984.26" y1="334.36" x2="5523.67" y2="437.77"/>
<line class="st9" x1="4983.79" y1="334.31" x2="5526.78" y2="456.58"/>
<line class="st9" x1="4983.79" y1="334.31" x2="5892.01" y2="564.91"/>
<line class="st9" x1="4977.05" y1="354.75" x2="5222.66" y2="433.29"/>
<line class="st9" x1="4977.05" y1="354.75" x2="5197.78" y2="442.68"/>
<line class="st9" x1="4977.05" y1="354.75" x2="5272.32" y2="433.29"/>
<line class="st11" x1="780.33" y1="-7.1" x2="780.33" y2="1123.23"/>
<line class="st12" x1="134.03" y1="712.41" x2="133.81" y2="823.52"/>
<line class="st12" x1="150.64" y1="712.45" x2="150.42" y2="823.56"/>
<line class="st12" x1="150.75" y1="712.38" x2="150.53" y2="823.49"/>
<line class="st12" x1="167.36" y1="712.41" x2="167.14" y2="823.52"/>
<line class="st12" x1="167.47" y1="712.36" x2="167.25" y2="823.47"/>
<line class="st12" x1="184.08" y1="712.4" x2="183.85" y2="823.51"/>
<line class="st12" x1="184.08" y1="712.4" x2="183.85" y2="823.51"/>
<line class="st12" x1="200.68" y1="712.43" x2="200.46" y2="823.54"/>
<line class="st12" x1="200.68" y1="712.43" x2="200.46" y2="823.54"/>
<line class="st12" x1="217.29" y1="712.46" x2="217.07" y2="823.57"/>
<rect x="481.83" y="716.51" class="st3" width="113.78" height="111.11"/>
<line class="st12" x1="493.47" y1="716.51" x2="493.24" y2="827.62"/>
<line class="st12" x1="510.07" y1="716.54" x2="509.85" y2="827.65"/>
<line class="st12" x1="510.18" y1="716.47" x2="509.96" y2="827.59"/>
<line class="st12" x1="526.79" y1="716.51" x2="526.57" y2="827.62"/>
<line class="st12" x1="526.9" y1="716.46" x2="526.68" y2="827.57"/>
<line class="st12" x1="543.51" y1="716.49" x2="543.29" y2="827.6"/>
<line class="st12" x1="543.51" y1="716.49" x2="543.29" y2="827.6"/>
<line class="st12" x1="560.11" y1="716.52" x2="559.89" y2="827.64"/>
<line class="st12" x1="560.11" y1="716.52" x2="559.89" y2="827.64"/>
<line class="st12" x1="576.72" y1="716.56" x2="576.5" y2="827.67"/>
<rect x="821" y="125.17" class="st3" width="221.33" height="216.15"/>
<line class="st12" x1="843.63" y1="125.17" x2="843.2" y2="341.31"/>
<line class="st12" x1="875.93" y1="125.23" x2="875.5" y2="341.38"/>
<line class="st12" x1="876.15" y1="125.1" x2="875.72" y2="341.25"/>
<line class="st12" x1="908.45" y1="125.17" x2="908.02" y2="341.31"/>
<line class="st12" x1="908.67" y1="125.07" x2="908.24" y2="341.22"/>
<line class="st12" x1="940.98" y1="125.14" x2="940.54" y2="341.28"/>
<line class="st12" x1="940.98" y1="125.14" x2="940.54" y2="341.28"/>
<line class="st12" x1="973.28" y1="125.2" x2="972.85" y2="341.35"/>
<line class="st12" x1="973.28" y1="125.2" x2="972.85" y2="341.35"/>
<line class="st12" x1="1005.59" y1="125.26" x2="1005.15" y2="341.41"/>
<rect x="5987.29" y="499.23" class="st7" width="30.54" height="136"/>
<rect x="6261.29" y="614.23" class="st7" width="30.54" height="136"/>
<rect x="5987.29" y="767.73" class="st7" width="30.54" height="136"/>
<rect x="6370.12" y="161.89" transform="matrix(-1.836970e-16 1 -1 -1.836970e-16 6615.2793 -6155.5039)" class="st7" width="30.54" height="136"/>
<rect x="6261.29" y="390.89" transform="matrix(-1.836970e-16 1 -1 -1.836970e-16 6735.4507 -5817.6758)" class="st7" width="30.54" height="136"/>
<rect x="5924.5" y="136.82" class="st3" width="221.33" height="216.15"/>
<line class="st12" x1="5947.13" y1="136.82" x2="5946.7" y2="352.97"/>
<line class="st12" x1="5979.43" y1="136.89" x2="5979" y2="353.03"/>
<line class="st12" x1="5979.65" y1="136.76" x2="5979.22" y2="352.9"/>
<line class="st12" x1="6011.95" y1="136.82" x2="6011.52" y2="352.97"/>
<line class="st12" x1="6012.17" y1="136.73" x2="6011.74" y2="352.87"/>
<line class="st12" x1="6044.48" y1="136.79" x2="6044.04" y2="352.94"/>
<line class="st12" x1="6044.48" y1="136.79" x2="6044.04" y2="352.94"/>
<line class="st12" x1="6076.78" y1="136.86" x2="6076.35" y2="353"/>
<line class="st12" x1="6076.78" y1="136.86" x2="6076.35" y2="353"/>
<line class="st12" x1="6109.08" y1="136.92" x2="6108.65" y2="353.07"/>
<rect x="2099.99" y="127.9" class="st3" width="221.33" height="216.15"/>
<line class="st12" x1="2122.61" y1="127.9" x2="2122.18" y2="344.05"/>
<line class="st12" x1="2154.92" y1="127.97" x2="2154.49" y2="344.11"/>
<line class="st12" x1="2155.14" y1="127.84" x2="2154.7" y2="343.98"/>
<line class="st12" x1="2187.44" y1="127.9" x2="2187.01" y2="344.05"/>
<line class="st12" x1="2187.66" y1="127.81" x2="2187.22" y2="343.95"/>
<line class="st12" x1="2219.96" y1="127.87" x2="2219.53" y2="344.02"/>
<line class="st12" x1="2219.96" y1="127.87" x2="2219.53" y2="344.02"/>
<line class="st12" x1="2252.27" y1="127.93" x2="2251.83" y2="344.08"/>
<line class="st12" x1="2252.27" y1="127.93" x2="2251.83" y2="344.08"/>
<line class="st12" x1="2284.57" y1="128" x2="2284.14" y2="344.14"/>
<rect x="3372.16" y="127.9" class="st3" width="221.33" height="216.15"/>
<line class="st12" x1="3394.79" y1="127.9" x2="3394.36" y2="344.05"/>
<line class="st12" x1="3427.09" y1="127.97" x2="3426.66" y2="344.11"/>
<line class="st12" x1="3427.31" y1="127.84" x2="3426.88" y2="343.98"/>
<line class="st12" x1="3459.61" y1="127.9" x2="3459.18" y2="344.05"/>
<line class="st12" x1="3459.83" y1="127.81" x2="3459.4" y2="343.95"/>
<line class="st12" x1="3492.14" y1="127.87" x2="3491.7" y2="344.02"/>
<line class="st12" x1="3492.14" y1="127.87" x2="3491.7" y2="344.02"/>
<line class="st12" x1="3524.44" y1="127.93" x2="3524.01" y2="344.08"/>
<line class="st12" x1="3524.44" y1="127.93" x2="3524.01" y2="344.08"/>
<line class="st12" x1="3556.75" y1="128" x2="3556.31" y2="344.14"/>
<rect x="4639.67" y="129.45" class="st3" width="221.33" height="216.15"/>
<line class="st12" x1="4662.3" y1="129.45" x2="4661.86" y2="345.6"/>
<line class="st12" x1="4694.6" y1="129.52" x2="4694.17" y2="345.66"/>
<line class="st12" x1="4694.82" y1="129.39" x2="4694.38" y2="345.54"/>
<line class="st12" x1="4727.12" y1="129.45" x2="4726.69" y2="345.6"/>
<line class="st12" x1="4727.34" y1="129.36" x2="4726.91" y2="345.5"/>
<line class="st12" x1="4759.64" y1="129.42" x2="4759.21" y2="345.57"/>
<line class="st12" x1="4759.64" y1="129.42" x2="4759.21" y2="345.57"/>
<line class="st12" x1="4791.95" y1="129.49" x2="4791.52" y2="345.63"/>
<line class="st12" x1="4791.95" y1="129.49" x2="4791.52" y2="345.63"/>
<line class="st12" x1="4824.25" y1="129.55" x2="4823.82" y2="345.7"/>
<polygon class="st4" points="4765.17,283.54 4741.36,271.26 4717.74,283.91 4722.06,257.47 4702.73,238.92 4729.21,234.86 
	4740.88,210.74 4752.93,234.67 4779.47,238.32 4760.43,257.17 "/>
<line class="st11" x1="777.67" y1="1124.56" x2="6307.67" y2="1121.4"/>
<line class="st11" x1="777.02" y1="-5.52" x2="6307.02" y2="-8.68"/>
<text transform="matrix(1 0 0 1 1284.0588 1286.6666)" class="st1 st13">- 0.001</text>
<text transform="matrix(1 0 0 1 1190.8213 1378.6674)" class="st1 st14">Voor het stilstaan</text>
<text transform="matrix(1 0 0 1 2552.8411 1286.6664)" class="st1 st13">+ 0.001</text>
<text transform="matrix(1 0 0 1 2459.6035 1378.667)"><tspan x="0" y="0" class="st1 st14">Zolang dat de </tspan><tspan x="0" y="86.4" class="st1 st14">student in zicht is</tspan></text>
<text transform="matrix(1 0 0 1 3857.5237 1286.6666)" class="st1 st13">+ 0.1</text>
<text transform="matrix(1 0 0 1 3764.2861 1378.6674)"><tspan x="0" y="0" class="st1 st14">Voor het aanhouden </tspan><tspan x="0" y="86.4" class="st1 st14">van de student</tspan></text>
<text transform="matrix(1 0 0 1 5172.6514 1286.666)" class="st1 st13">+ 1</text>
<text transform="matrix(1 0 0 1 4960.9204 1376.6666)"><tspan x="0" y="0" class="st1 st14">Voor de student </tspan><tspan x="0" y="86.4" class="st1 st14">in gevangenis te steken</tspan></text>
<polygon class="st4" points="561.41,803.88 540.51,793.1 519.78,804.21 523.58,781 506.61,764.72 529.85,761.15 540.09,739.98 
	550.67,760.99 573.97,764.19 557.25,780.73 "/>
</svg>
